/* XPM */
static char *result[] = {
/* columns rows colors chars-per-pixel */
"130 130 24 1 ",
"  c #BB1111",
". c #FF7D00",
"X c #FFDC00",
"o c yellow",
"O c #FFFF1E",
"+ c #FFFF2D",
"@ c #FFFF55",
"# c #FFFF78",
"$ c #FFFF7D",
"% c #FFFF87",
"& c #FFFF91",
"* c #FFFFA0",
"= c #FFFFAA",
"- c #FFFFBE",
"; c #FFFFCD",
": c #FFFFD2",
"> c #FFFFD7",
", c #FFFFDC",
"< c #FFFFE1",
"1 c #FFFFEB",
"2 c ivory",
"3 c #FFFFF5",
"4 c white",
"5 c None",
/* pixels */
"5555555555555555555555555555555555555555555555555555555555555555555555555555555555555555555555555555555555555555555555555555555555",
"5555555555555555555555555555555555555555555555555555555555555555555555555555555555555555555555555555555555555555555555555555555555",
"5555555555555555555555555555555555555555555555555555555555555555555555555555555555555555555555555555555555555555555555555555555555",
"5555555555555555555555555555555555555555555555555555555555555555555555555555555555555555555555555555555555555555555555555555555555",
"5555555555555555555555555555555555555555555555555555555555555555555555555555555555555555555555555555555555555555555555555555555555",
"5555555555555555555555555555555555555555555555555555555555555555555555555555555555555555555555555555555555555555555555555555555555",
"5555555555555555555555555555555555555555555555555555555555555555555555555555555555555555555555555555555555555555555555555555555555",
"5555555555555555555555555555555555555555555555555555555555555555555555555555555555555555555555555555555555555555555555555555555555",
"5555555555555555555555555555555555555555555555555555555555555555555555555555555555555555555555555555555555555555555555555555555555",
"5555555555555555555555555555555555555555555555555555555555555555555555555555555555555555555555555555555555555555555555555555555555",
"5555555555555555555555555555555555555555555555555555555555555555555555555555555555555555555555555555555555555555555555555555555555",
"5555555555555555555555555555555555555555555555555555555555555555555555555555555555555555555555555555555555555555555555555555555555",
"5555555555555555555555555555555555555555555555555555555555555555555555555555555555555555555555555555555555555555555555555555555555",
"5555555555555555555555555555555555555555555555555555555555555555555555555555555555555555555555555555555555555555555555555555555555",
"5555555555555555555555555555555555555555555555555555555555555555555555555555555555555555555555555555555555555555555555555555555555",
"5555555555555555555555555555555555555555555555555555555555555555555555555555555555555555555555555555555555555555555555555555555555",
"5555555555555555555555555555555555555555555555555555555555555555555555555555555555555555555555555555555555555555555555555555555555",
"5555555555555555555555555555555555555555555555555555555555555555555555555555555555555555555555555555555555555555555555555555555555",
"5555555555555555555555555555555555555555555555555555555555555555555555555555555555555555555555555555555555555555555555555555555555",
"5555555555555555555555555555555555555555555555555555555555555555555555555555555555555555555555555555555555555555555555555555555555",
"5555555555555555555555555555555555555555555555555555555555555555555555555555555555555555555555555555555555555555555555555555555555",
"5555555555555555555555555555555555555555555555555555555555555555555555555555555555555555555555555555555555555555555555555555555555",
"5555555555555555555555555555555555555555555555555555555555555555555555555555555555555555555555555555555555555555555555555555555555",
"5555555555555555555555555555555555555555555555555555555555555555555555555555555555555555555555555555555555555555555555555555555555",
"5555555555555555555555555555555555555555555555555555555555555555555555555555555555555555555555555555555555555555555555555555555555",
"5555555555555555555555555555555555555555555555555555555555555555555555555555555555555555555555555555555555555555555555555555555555",
"5555555555555555555555555555555555555555555555555555555555555555555555555555555555555555555555555555555555555555555555555555555555",
"5555555555555555555555555555555555555555555555555555555555555555555555555555555555555555555555555555555555555555555555555555555555",
"5555555555555555555555555555555555555555555555555555555555555555555555555555555555555555555555555555555555555555555555555555555555",
"5555555555555555555555555555555555555555555555555555555555555555555555555555555555555555555555555555555555555555555555555555555555",
"5555555555555555555555555555555555555555555555555555555555555555555555555555555555555555555555555555555555555555555555555555555555",
"5555555555555555555555555555555555555555555555555555555555555555555555555555555555555555555555555555555555555555555555555555555555",
"5555555555555555555555555555555555555555555555555555555555555555555555555555555555555555555555555555555555555555555555555555555555",
"5555555555555555555555555555555555555555555555555555555555555555555555555555555555555555555555555555555555555555555555555555555555",
"5555555555555555555555555555555555555555555555555555555555555555555555555555555555555555555555555555555555555555555555555555555555",
"5555555555555555555555555555555555555555555555555555555555555555555555555555555555555555555555555555555555555555555555555555555555",
"5555555555555555555555555555555555555555555555555555555555555555555555555555555555555555555555555555555555555555555555555555555555",
"5555555555555555555555555555555555555555555555555555555555555555555555555555555555555555555555555555555555555555555555555555555555",
"5555555555555555555555555555555555555555555555555555555555555555555555555555555555555555555555555555555555555555555555555555555555",
"55555555555555555555555555555555555555555555555555555555555555555555555554-4555555555555555555555555555555555555555555555555555555",
"55555555555555555555555555555555555555555555555555555555555555555554-@55@4*4455555555555555555555555555555555555555555555555555555",
"55555555555555555555555555555555555555555555555555555555555555555544*<-.@444-5554-455555555555555555555555555555555555555555555555",
"555555555555555555555555555555555555555555555554-@555555555554-455-4-44@$4>-45544*445555555555555555555555555555555555555555555555",
"55555555555555555555555555555555555555555555554444&o45555555-4*445@4144;244-555-444-5555555555555555555555555555555555555555555555",
"5555555555555555555555555555555555555555555555-4441-44555-4@--44-4 4*444434-555444-@5555555555555555555555555555555555555555555555",
"555555555555555555555555555555555555555555555544-1444-55-44->#14@4@444444444554@44-.@-45555555555555555555555555555555555555555555",
"555555555555555555555555555555555555555555555554o&444-5.*4444%1*44444444444&44<<<-44-*44555555555555555555555555555555555555555555",
"55555555555555555555555555555555555555555555555555@o4@@-:444434444444444444>4444444<444-555555555555555555555555555555555555555555",
"55555555555555555555555555555555555555555555555555554-:<444444444444444444<44444444-<*44555555555555555555555555555555555555555555",
"555555555555555555555555555555555555555555555555555.4444444444444444444444444444444*--45555555555555555555555555555555555555555555",
"555555555555555555555555555555555555555555555555@44o4444444444444444444444444444444-4555555555555555555555555555555555555555555555",
"55555555555555555555555555555555555555555555555@44414444434444444444444444444444444&@.55555555555555555555555555555555555555555555",
"55555555555555555555555555555555555555555555554=4444444444444444444444444444444444444445555555555555555555555555555555555555555555",
"55555555555555555555555555555555555555555555554;444444444444444444444444444444444444414@555555555555555555555555555555555555555555",
"555555555555555555555555555555555555555555555544444444444444444444444444444444444444444@555555555555555555555555555555555555555555",
"555555555555555555555555555555555555555555554444444444444444444444444444444444444444414@555555555555555555555555555555555555555555",
"5555555555555555555555555555555555555555555@-44444444444444444444444444444444444444<4445555555555555555555555555555555555555555555",
"5555555555555555555555555555555555555555554-444444444444444444444444444444444444444@-4@5555555555555555555555555555555555555555555",
"55555555555555555555555555555555555555555@>44444444444444444444444444444444444444444 4&4@55555555555555555555555555555555555555555",
"55555555555555555555555555555555555555555@<44444444444444444444444444444444444444444&44<4-5555555555555555555555555555555555555555",
"55555555555555555555555555555555555555555@&44444444444444444444444444444444444444444:4444*4555555555555555555555555555555555555555",
"555555555555555555555555555555555555555555@1444>4444444444444444444444444444444444444344414555555555555555555555555555555555555555",
"5555555555555555555555555555555555555555555-4&4@4444444444444444444444444444444444444,444$4555555555555555555555555555555555555555",
"55555555555555555555555555555555555555555555554o444444444444444444444444444444444444:*44&.5555555555555555555555555555555555555555",
"55555555555555555555555555555555555555555555554$4444444444444444444444444444444444:-4@..555555555555555555555555555555555555555555",
"555555555555555555555555555555555555555555555441444444444444444444444444444444444=O@5555555555555555555555555555555555555555555555",
"555555555555555555555555555555555555555555555<44444444444444444444444444444444444;<.5555555555555555555555555555555555555555555555",
"55555555555555555555555555555555555555555555544444444444444444444444444444444444444X4555555555555555555555555555555555555555555555",
"55555555555555555555555555555555555555555555.-4444444444444444444444444444444444444-455554-455555555555555555555555555555555555555",
"55555555555555555555555555555555555555555555444444444444444444444444444444444444444:44 544*445555555555555555555555555555555555555",
"55555555555555555555555555555555555555555555434444444444444444444444444444444444444444$@-444-5555555555555555555555555555555555555",
"5555555555555555555555555555555555555555555.4344444444444444444444444444444444444444442@-4*445555555555555555555555555555555555555",
"555555555555555555555555555555555555555554--4:4444444444444444444444444444444444444444,&.4-455555555555555555555555555555555555555",
"5555555555555555555555555555555555555555444*4>4344444444444444444444444444444444444444=-555555555555555555555555555555555555555555",
"5555555555555555555555555555555555555555-44444:44444444444444444444444444444444444:4>*@5555555555555555555555555555555555555555555",
"55555555555555555555555555555555555555554-4-444<4444444444444444444444444444444444:-. 55555555555555555555555555555555555555555555",
"55555555555555555555555555555555555555555-$&41*<4444444444444444444444444444444444445555555555555555555555555555555555555555555555",
"55555555555555555555555555555555555555555-44>@..@444444444444444444444444444444444,45555555555555555555555555555555555555555555555",
"55555555555555555555555555555555555555555-4-4@555444444444444444444444444444444444&45555555555555555555555555555555555555555555555",
"5555555555555555555555555555555555555555544*4.55544444444444444444444444444444444-o55555555555555555555555555555555555555555555555",
"5555555555555555555555555555555555555555554--.4-&*<44444444444444444444444:444444&555555555555555555555555555555555555555555555555",
"55555555555555555555555555555555555555555554-444:4444444444444444444444444144434<@555555555555555555555555555555555555555555555555",
"5555555555555555555555555555555555555555555@-444444444414><444444;4444444444:4444o555555555555555555555555555555555555555555555555",
"5555555555555555555555555555555555555555555-444444444442+#444&444@*444444>4,1444<@555555555555555555555555555555555555555555555555",
"5555555555555555555555555555555555555555555444444@443444+:444*... @44444414,34:*@5555555555555555555555555555555555555555555555555",
"555555555555555555555555555555555555555555554-@44.->443414444*.555o444444-42<44-55555555555555555555555555555555555555555555555555",
"555555555555555555555555555555555555555555555555555-442444443$.555.444444;4444@555555555555555555555555555555555555555555555555555",
"555555555555555555555555555555555555555555555555555-41-444444&@-@5.<44444;1<-55555555555555555555555555555555555555555555555555555",
"5555555555555555555555555555555555555555555555555555@o-@--44@444-@-*44444*@@555555555555555555555555555555555555555555555555555555",
"5555555555555555555555555555555555555555555555555555555555.45-444@@-44:-4@55555555555555555555555555555555555555555555555555555555",
"5555555555555555555555555555555555555555555555555555555555555444-@@--4@@5555555555555555555555555555555555555555555555555555555555",
"555555555555555555555555555555555555555555555555555555555555554-@55@-@555555555555555555555555555555555555555555555555555555555555",
"5555555555555555555555555555555555555555555555555555555555555555555555555555555555555555555555555555555555555555555555555555555555",
"5555555555555555555555555555555555555555555555555555555555555555555555555555555555555555555555555555555555555555555555555555555555",
"5555555555555555555555555555555555555555555555555555555555555555555555555555555555555555555555555555555555555555555555555555555555",
"5555555555555555555555555555555555555555555555555555555555555555555555555555555555555555555555555555555555555555555555555555555555",
"5555555555555555555555555555555555555555555555555555555555555555555555555555555555555555555555555555555555555555555555555555555555",
"5555555555555555555555555555555555555555555555555555555555555555555555555555555555555555555555555555555555555555555555555555555555",
"5555555555555555555555555555555555555555555555555555555555555555555555555555555555555555555555555555555555555555555555555555555555",
"5555555555555555555555555555555555555555555555555555555555555555555555555555555555555555555555555555555555555555555555555555555555",
"5555555555555555555555555555555555555555555555555555555555555555555555555555555555555555555555555555555555555555555555555555555555",
"5555555555555555555555555555555555555555555555555555555555555555555555555555555555555555555555555555555555555555555555555555555555",
"5555555555555555555555555555555555555555555555555555555555555555555555555555555555555555555555555555555555555555555555555555555555",
"5555555555555555555555555555555555555555555555555555555555555555555555555555555555555555555555555555555555555555555555555555555555",
"5555555555555555555555555555555555555555555555555555555555555555555555555555555555555555555555555555555555555555555555555555555555",
"5555555555555555555555555555555555555555555555555555555555555555555555555555555555555555555555555555555555555555555555555555555555",
"5555555555555555555555555555555555555555555555555555555555555555555555555555555555555555555555555555555555555555555555555555555555",
"5555555555555555555555555555555555555555555555555555555555555555555555555555555555555555555555555555555555555555555555555555555555",
"5555555555555555555555555555555555555555555555555555555555555555555555555555555555555555555555555555555555555555555555555555555555",
"5555555555555555555555555555555555555555555555555555555555555555555555555555555555555555555555555555555555555555555555555555555555",
"5555555555555555555555555555555555555555555555555555555555555555555555555555555555555555555555555555555555555555555555555555555555",
"5555555555555555555555555555555555555555555555555555555555555555555555555555555555555555555555555555555555555555555555555555555555",
"5555555555555555555555555555555555555555555555555555555555555555555555555555555555555555555555555555555555555555555555555555555555",
"5555555555555555555555555555555555555555555555555555555555555555555555555555555555555555555555555555555555555555555555555555555555",
"5555555555555555555555555555555555555555555555555555555555555555555555555555555555555555555555555555555555555555555555555555555555",
"5555555555555555555555555555555555555555555555555555555555555555555555555555555555555555555555555555555555555555555555555555555555",
"5555555555555555555555555555555555555555555555555555555555555555555555555555555555555555555555555555555555555555555555555555555555",
"5555555555555555555555555555555555555555555555555555555555555555555555555555555555555555555555555555555555555555555555555555555555",
"5555555555555555555555555555555555555555555555555555555555555555555555555555555555555555555555555555555555555555555555555555555555",
"5555555555555555555555555555555555555555555555555555555555555555555555555555555555555555555555555555555555555555555555555555555555",
"5555555555555555555555555555555555555555555555555555555555555555555555555555555555555555555555555555555555555555555555555555555555",
"5555555555555555555555555555555555555555555555555555555555555555555555555555555555555555555555555555555555555555555555555555555555",
"5555555555555555555555555555555555555555555555555555555555555555555555555555555555555555555555555555555555555555555555555555555555",
"5555555555555555555555555555555555555555555555555555555555555555555555555555555555555555555555555555555555555555555555555555555555",
"5555555555555555555555555555555555555555555555555555555555555555555555555555555555555555555555555555555555555555555555555555555555",
"5555555555555555555555555555555555555555555555555555555555555555555555555555555555555555555555555555555555555555555555555555555555",
"5555555555555555555555555555555555555555555555555555555555555555555555555555555555555555555555555555555555555555555555555555555555",
"5555555555555555555555555555555555555555555555555555555555555555555555555555555555555555555555555555555555555555555555555555555555",
"5555555555555555555555555555555555555555555555555555555555555555555555555555555555555555555555555555555555555555555555555555555555",
"5555555555555555555555555555555555555555555555555555555555555555555555555555555555555555555555555555555555555555555555555555555555"
};
