/* XPM */
static char *result[] = {
/* columns rows colors chars-per-pixel */
"130 130 85 1 ",
"  c gray16",
". c gray20",
"X c #672626",
"o c #8B1D1D",
"O c #BB1111",
"+ c #E70606",
"@ c #EF0404",
"# c red",
"$ c #FF1400",
"% c #FF2300",
"& c #FF3700",
"* c #FF4600",
"= c #FF5000",
"- c #FF5500",
"; c #FF5A00",
": c #FF7D00",
"> c #FF9B00",
", c #FFA000",
"< c orange",
"1 c #FFAA00",
"2 c #FFAF00",
"3 c #FFB400",
"4 c #FFB900",
"5 c #FFBE00",
"6 c #FFC800",
"7 c #FFCD00",
"8 c #FFD200",
"9 c #FFDC00",
"0 c #FFE100",
"q c #FFE600",
"w c #FFEB00",
"e c #FFF000",
"r c #FFF500",
"t c yellow",
"y c #FFFF05",
"u c #FFFF0A",
"i c #FFFF0F",
"p c #FFFF14",
"a c #FFFF19",
"s c #FFFF1E",
"d c #FFFF23",
"f c #FFFF28",
"g c #FFFF2D",
"h c #FFFF32",
"j c #FFFF37",
"k c #FFFF3C",
"l c #FFFF41",
"z c #FFFF46",
"x c #FFFF4B",
"c c #FFFF55",
"v c #FFFF5A",
"b c #FFFF5F",
"n c #FFFF64",
"m c #FFFF69",
"M c #FFFF6E",
"N c #FFFF73",
"B c #FFFF78",
"V c #FFFF7D",
"C c #FFFF82",
"Z c #FFFF87",
"A c #FFFF8C",
"S c #FFFF91",
"D c #FFFF96",
"F c #FFFF9B",
"G c #FFFFA0",
"H c #FFFFA5",
"J c #FFFFAA",
"K c #FFFFAF",
"L c #FFFFB4",
"P c #FFFFB9",
"I c #FFFFBE",
"U c #FFFFC3",
"Y c #FFFFC8",
"T c #FFFFCD",
"R c #FFFFD2",
"E c #FFFFD7",
"W c #FFFFDC",
"Q c #FFFFE1",
"! c #FFFFE6",
"~ c #FFFFEB",
"^ c ivory",
"/ c #FFFFF5",
"( c #FFFFFA",
") c white",
"_ c None",
/* pixels */
"__________________________________________________________________________________________________________________________________",
"__________________________________________________________________________________________________________________________________",
"__________________________________________________________________________________________________________________________________",
"__________________________________________________________________________________________________________________________________",
"__________________________________________________________________________________________________________________________________",
"__________________________________________________________________________________________________________________________________",
"__________________________________________________________________________________________________________________________________",
"__________________________________________________________________________________________________________________________________",
"__________________________________________________________________________________________________________________________________",
"__________________________________________________________________________________________________________________________________",
"__________________________________________________________________________________________________________________________________",
"__________________________________________________________________________________________________________________________________",
"__________________________________________________________________________________________________________________________________",
"__________________________________________________________________________________________________________________________________",
"__________________________________________________________________________________________________________________________________",
"__________________________________________________________________________________________________________________________________",
"__________________________________________________________________________________________________________________________________",
"__________________________________________________________________________________________________________________________________",
"__________________________________________________________________________________________________________________________________",
"_________________________________________________________________________________O________________________________________________",
"________________________________________________________________________________:s:_______________________________________________",
"______________________________________________________________________O_____O_):6c6:______________________________________________",
"_____________________________________________________________________:s:___:s::::6:_______________________________________________",
"___________________________________________________________O________:6c6O_OtBt::OX________________________________________________",
"__________________________________________________________:s:________:6:__:gjV#:_____________O____________________________________",
"_________________________________________________________:6c6:________:O__tpsc::O___________:s:___________________________________",
"___________________________________O______________________:6:_________:__O6igcw%OO_________:6c6:__________________________________",
"__________________________________:s:______________________XO____________t9uucqt2:__________:s:___________________________________",
"_________________________________:6c6:________________O__________________:6ruztgq:O__________O____________________________________",
"__________________________________:6:O___O___________:s::____________XX_Xt4tuafp9*:_______________________________________________",
"___________________________________XO__::s::________:6c6#)#.O______O:g6#O49rwrrp,&_____O__:_____O_________________________________",
"_______________________________________X6ct:_________9g6:cpw:X_____ctft&+2qwwwwa:O____:6::#X:__:s:____O___________________________",
"_______________________________________::4g9X________Otp:furt&:___:ggc9w#:,r49tt:O___O:p2:t:O_O6c6:__:s:__________________________",
"________________________________________O:cw&O_______:esfjtza2#___ckfk01:96,5,74#____O&:21t:#_O:s:__:6c6:_________________________",
"_________________________________________%9e::______O1chkdiht29O::gmbcre9t66<1::O____:o#:7ep%O:_O___::s:__________________________",
"_________________________________________:9i7&O_____#6jhctau62t:wwkNMhuisse79:&o#___X:#@:ili:%X_______O___________________________",
"_________________________________________#pqe*#_____#:fkxsfuitp7ftcjNbkucke794##:%OXO:65auhs51:O__________________________________",
"_________________________________________c:ie$O_____O=9fjffstksqgzzxBbmjgf6794::p4:::9fsarrzta79__________________________________",
"_________________________________________:%22$%____:41qscjfnlgt9hccnNnNBht6794:*:46w6agjxutu8lecO_________________________________",
"__________________________________O________%&#o___X:teeaczzcfjzjcmMmNmMchlit9wt&&:gswgllhfri794:__________________________________",
"_________________________________:s:_______O:+o.__X:217icczchcxxcncnNnmzclkt9pgt6wsgfhcjdti94:X___________________________________",
"________________________________:6c6O_______:#.X__XO6:9sfmNzcclmMMnvnMxccVZc1jpccsajhlclsr1*%O________O___________________________",
"_________________________________:s9#XO_____:OXXXX.#::wtkVcxcmmNBZNMnNNncVZctcccMczcggcxpe4+O#______O9s:__________________________",
"__________________________________O#%*t%______OX##O%*:9jkInkxNZBAFVNNMmcnVZeqtllmcjxjcczfw:+:g6:_OOX:gB6:_________________________",
"___________________________________Ow9g7:c____O+OO*9qraflTNccZGCIGCBCAmbNcBhaccfcMbcllkle4::9isw:4wptsts__________________________",
"___________________________________%kajtt4&:9:2<<;qwfsjnjCVZbVJHTIGDGFVSAMMbxbBlNxkchkjgq1w2eguugsftjssc__________________________",
"_______________________________O___:ffcarqttiea073pshhxNmCbCZGPYEYIKGLJIJDZBcmnvCcmCbcfzhaesfsazchldxzst__________________________",
"________________________O#O__::s:O:cschsfrfcjtzusafdxgbBmDABDFYRQEWUR^(YHHDSMBNnMmmBccazcfrflcfbMfxlkB4O__________________________",
"_______________________ct94::c:c6#%kccxasrpdgjxhxkkhllmBZZDHIYQ!)/)//^)QPLGDVNVBVNASMjjnccsugsfcjifhfw:___________________________",
"_______________________:sgk::ttw6O9ezxlkgspkbxbcmcmcBNVCASGDPW~))^/!~W^EPIJGSCZCBVZCMxxcccppcuusla74cO____________________________",
"_______________________:Muk:::4w&O92gjjzjjgcbBmnBMAVCZVASDDHRW//~REW!TRUIPLJSDDSVBANmccxnffzhtkst4:O______________________________",
"_______________________:gtg:::7s2&::16azjzinbCNMDZGCZZDDFDJIE^!WYYRTEYYIUTLLJHFCAZCBmcmMcgcnct4s:O________________________________",
"_______________________XssO:ttta<2:w2:saszjNMCZZZZJFASDDLKIU!W!!TYIPIIUYYYIPLIIKGDAVbcbxcskcmt#___________________________________",
"_______________________%ts#:wiaa67<e7tsillhCABACAHFDHFHJLKIYQQ~TYUPIIPTRYYPYTQEPKFFDNmVcbhjck6X___________________________________",
"______________________:6c6:6ihstqtrur5ffllmFGZKHSFFSJFJJPKURWW^RUIKIUUTTIYUEQ)^EIKGDVbNcNxjcf2%)__________________________________",
"_______________________:s:t:mjjg9uuiuwaallcALLPFSFHSJLLKUIYE!!^QRYLURERUKITW!~)~IIDZBMMxBnxzmt:c___O:O____________________________",
"________________________O_::Vafgrhckj0uaalcBHYIFAGPKPYYYEYQ^//^!WWREWQTULITWQ!~TIPAZNMclbstkS2:#OO::wt%:#O________________________",
"___________________________tciisigcsztgallalnIYFZDLLTRW!~!~(()^~^~Q!~^QEYIRREETYIKDBCZmxz9tgt*&%:647cs24pg::______________________",
"____________________________:%:62slcpgltfflmcLLDVFKLTQ^))/))))///((/^(^^!QQETTUJHGGSANMjt1wVgwwp1t7sietemc9c______________________",
"_______________________________:9Vkgrqe6kiqagHJCZDKLE/)))))))))()))))))/()/~ETPKPHIGSAzak9wptskassttpwg1Zcsc:_____________________",
"_________________________________Itj199111siaFVVCAFIR^)))))))))))))))))))))!ETTKPJYILKVcs9p76tgjzfaws9::tw4:______________________",
"__________________________________.%+::*4:p7qnVBZCFLY!)))))))))))))))())))(~RIPLHYRTWIFkt22teqazzne9::__O:X_______________________",
"_________________________________X.X..Oo+&t2ehcMADAKT!/))))))))))))))(((((^!YJPIIJQ~TKZs9wwww29eij::______________________________",
"________________________________:::9::%%%+:*7hmCCSDLU!())))))))))))))((^Q~!WUHLLYSYHcmfspgts9%o%%#________________________________",
"_______________________________:6jt2:4444gg:qjZNCDFITQ/))))))))))))))))///!WUHPIYJIGzcha72*+O.____________________________________",
"________________________________c2s66tts6qfczcANDFHLT!)))/)))))))))))))))(^QTPPPYPGSbNbcst7:::O::_________________________________",
"________________________________)6tt9qquufjncmHAHKPU~/))))))))))))))))))))~WYIJIUKZZNccNkfsqetwtt:________________________________",
"_________________________________#wqtfrjdsxxbNZSFKUQ))))))))))))))))))))(!WTPLHPIYGCNxclxkzsulktj6:_______________________________",
"_________________________________:gkfitrkgjcVNAFFHYR)))))))))))))))))))(!RUYULGPJIHANbbkcif89it2w:O_______________________________",
"_________________________________#2iqekafklcmVZGFJYE)))))))))))))))))))/QRRTTPLKLPFZncxahua67p46&%O#X_____________________________",
"______________________________O_:#:7<tjsajdbmVDJGKTE))))))))))))))))))/~QRRRRUILGGDCNNctaqejpgt:#:=9wt____________________________",
"_____________________________:6%t::2:pjstzcxbMGJGKLR()))))))))))))))()^!WERWREYJGDGVBNAzgtitpgt::26rm4:___________________________",
"____________________________:69:66g9tstcfhzzfnSJLKKY/)))))))))))))(^~~^!ETRRQRUPJZDVNnBjct9spgt:#4ealwO___________________________",
"____________________________O69:wpettq7telhphznJJJLY~/)))))))))(/^!EWQQQRYYRWETIJDDZmNZckspi9w4:&&4pp::________O__________________",
"___________________________t:wj1sisut97pjtiqtwcmGJPYR!!())))))^!!WERWW!^EUYEQRYTGFFNMnNlxcfat924:4:9:X_______O:s:_________________",
"__________________________%peactquufp9-wgcp756bNZJPLTTQQ^))))(!RTYYUW!!~ELIYEPIUHGFVmnblakflet:1ee9S#X_______X6c6:________________",
"_________________________Xtiljjs94wtt::tcgBkttbVCFKLIIYEWQW!~/RTILIKTW^~YPKKTLLPSDGmvblcpcjhq716ru6w:&:c_O___::s:_________________",
"__________________________%plpfr<1112#:scgccchxVZGHDHHLEWEURQWTTTPRYR!~QYHHFLHHLAAJmxbgkihhcf7:eauq9:2:::4::___O__________________",
"___________________________:tte9*+%X%%9scpgccmmBMSSDJLPTWUPUREUYTJUYTE(QKDADFDLFmBVzsbdpraqk9w:1fci9-t2:7ip:______________________",
"____________________________X%+o.XX.O%:69tacvBxNmVVCGJPIEYIYTRUYIPYI!)))YKAVZVKAMSFhthu9>7:699&47c7w:w42tsi:______________________",
"_________________________O_OOO_XX. O%+:jawilkNvnNNBDKPPTPFHKLPPUUWW~~!))/CDmBnCmMFBmg9r8,1&#::O%tg:9%%::gca9______________________",
"________________________:s:XOX#O:oX+&*<gjpymcmncNVmZJHWYFVFJUYYURRPQLY)))KmncmbNMNlmaqq5q:&O###X##X___::fli:______________________",
"_______________________:6c6XO:gw:&O+::0fffiklbMlNmCSYIIFZMFGGILLPPKGGH))RIIVccbBzzllai:7t:+OOOOO#X_____:g9tc______________________",
"________________________:s::c4kk2#O+*6ufhtqsgNbgkbVAYSGBBMDDALGHJGFNVn^R)~JIFBcNchlsak%=::%%O%&4t%______O#O_______________________",
"_________________________O__O6kf1&%#%:5tc:&pwzhfkVNCTAzbNbnBADGJGZCmMBFI~ESSJZmccggt8i1994%O%+:7c:O_______________________________",
"____________________________:99e:%X__::::X#4tupgfCNcGVczccbmVZASAVZbcckJEIBBBccMitcp0a<7t:o#O%:t96O_______________________________",
"_____________________________::t::_______X9tufjfnABcmMciwfzMVVmZVnMzacsSBccccppBtefpfu<::&.O#%:c46:O______________________________",
"_____________________________:_O________:+wtpfhslmccspg9igznmABNNczaistBpwwgggggw9e98t1$+.__X#9ctpjtc_____________________________",
"_________________________O_____________O:=7awlgggcfsp:62eaccmnNNbdlkst9p2w:4tttt:4:1<<:@+X___X:c:cgs:_____________________________",
"________________________:s:O___________:w<tatflguaep4++:7tljbcMcxritj99p2w:46666:&*4:<i<:#_____c:kgs:_____________________________",
"_______________________:6c6O__________o2t48aqilgw974: X=:qgfccblxs7pp29p:2:4s:&:%%::15gtwO______:t9tc_____________________________",
"________________________:s:__________#:wit0tiiawt5::O #<65atjcxlku1w229p:::4s:::%%:#1tl<:O_OOX___O#O______________________________",
"_________________________O___________+qshiuqi9pwpq:OX :qt5gpfzghsr9w22991::4s:::++:&:1p:X__O:6:___________________________________",
"_____________________________________%<udppqiwtuf<&O_X61e6gruuutfqww::991124s:::&&6:O&:____c6c6:__________________________________",
"_____________________________________:*euwaqtpriu2:___:*21e4usr9iwtw<7197:94s::&:*g*&::____O:s:___________________________________",
"________________________________:X.OO:+gp1k9uft0e6O__:t6444::tp:6t9wee:27<tws9:#4:t::%:____:_O____________________________________",
"_______________________________:#::%::&wg4crthw64#___c9wp:s..%::t_:94:tw76epc9:$1;e6p::O___:______________________________________",
"_____________________________O_:Otp6::6ctscfuge*tO___I6j7:9__Ost9___:Octttae499=7:2w6%##O__:_O____________________________________",
"____________________________:s:c:%6::::s::9jtiw+:___Ocwki2:__O6c6:___:I61rstw9:&:::#:t96:O_O:s:___________________________________",
"___________________________:6c6::_O____O__Ospw:#O___:stVt2O___:s:_____::pq4i:9I#OX___c6c6O_O6c6:__________________________________",
"____________________________:s:)____________:OO:____ttfhg2X____O______:%w1:74:t:XO___):s:___:s:___________________________________",
"_____________________________O______________#X______cpszg4O___________:%t2:e9::###_____O_____O____________________________________",
"___________________________________________:6%_____O97asc6____________#%6w<964:t:6:_______________________________________________",
"__________________________________________:6c6:___X:9sjzc9____________O:6:egtw9t:c6:______________________________________________",
"___________________________________________:s:___:69c4cfgc___________O&w4:gek2:t9s:_______________________________________________",
"____________________________________________O___:6c6#::::____________X4tw:tttMp9:O________________________________________________",
"_________________________________________________:s::_________:______O6w6#:c1cm4:_________________________________________________",
"__________________________________________________O___________:_______:6%__c4mmwO_________________________________________________",
"_____________________________________________________________:6:______:g:___tgc9:_________________________________________________",
"____________________________________________________________:6c6:____:6c6:___O:___________________________________________________",
"_____________________________________________________________:s:______:s:_________________________________________________________",
"______________________________________________________________O________O__________________________________________________________",
"__________________________________________________________________________________________________________________________________",
"__________________________________________________________________________________________________________________________________",
"__________________________________________________________________________________________________________________________________",
"__________________________________________________________________________________________________________________________________",
"__________________________________________________________________________________________________________________________________",
"__________________________________________________________________________________________________________________________________",
"__________________________________________________________________________________________________________________________________",
"__________________________________________________________________________________________________________________________________",
"__________________________________________________________________________________________________________________________________",
"__________________________________________________________________________________________________________________________________",
"__________________________________________________________________________________________________________________________________",
"__________________________________________________________________________________________________________________________________",
"__________________________________________________________________________________________________________________________________",
"__________________________________________________________________________________________________________________________________",
"__________________________________________________________________________________________________________________________________",
"__________________________________________________________________________________________________________________________________",
"__________________________________________________________________________________________________________________________________",
"__________________________________________________________________________________________________________________________________"
};
