/* XPM */
static char *result[] = {
/* columns rows colors chars-per-pixel */
"130 130 37 1 ",
"  c #BB1111",
". c red",
"X c #FF7D00",
"o c #FFC800",
"O c #FFDC00",
"+ c yellow",
"@ c #FFFF14",
"# c #FFFF1E",
"$ c #FFFF2D",
"% c #FFFF37",
"& c #FFFF55",
"* c #FFFF69",
"= c #FFFF6E",
"- c #FFFF78",
"; c #FFFF7D",
": c #FFFF87",
"> c #FFFF91",
", c #FFFF9B",
"< c #FFFFA0",
"1 c #FFFFA5",
"2 c #FFFFAA",
"3 c #FFFFAF",
"4 c #FFFFB4",
"5 c #FFFFBE",
"6 c #FFFFC8",
"7 c #FFFFCD",
"8 c #FFFFD2",
"9 c #FFFFD7",
"0 c #FFFFDC",
"q c #FFFFE1",
"w c #FFFFE6",
"e c #FFFFEB",
"r c ivory",
"t c #FFFFF5",
"y c #FFFFFA",
"u c white",
"i c None",
/* pixels */
"iiiiiiiiiiiiiiiiiiiiiiiiiiiiiiiiiiiiiiiiiiiiiiiiiiiiiiiiiiiiiiiiiiiiiiiiiiiiiiiiiiiiiiiiiiiiiiiiiiiiiiiiiiiiiiiiiiiiiiiiiiiiiiiiii",
"iiiiiiiiiiiiiiiiiiiiiiiiiiiiiiiiiiiiiiiiiiiiiiiiiiiiiiiiiiiiiiiiiiiiiiiiiiiiiiiiiiiiiiiiiiiiiiiiiiiiiiiiiiiiiiiiiiiiiiiiiiiiiiiiii",
"iiiiiiiiiiiiiiiiiiiiiiiiiiiiiiiiiiiiiiiiiiiiiiiiiiiiiiiiiiiiiiiiiiiiiiiiiiiiiiiiiiiiiiiiiiiiiiiiiiiiiiiiiiiiiiiiiiiiiiiiiiiiiiiiii",
"iiiiiiiiiiiiiiiiiiiiiiiiiiiiiiiiiiiiiiiiiiiiiiiiiiiiiiiiiiiiiiiiiiiiiiiiiiiiiiiiiiiiiiiiiiiiiiiiiiiiiiiiiiiiiiiiiiiiiiiiiiiiiiiiii",
"iiiiiiiiiiiiiiiiiiiiiiiiiiiiiiiiiiiiiiiiiiiiiiiiiiiiiiiiiiiiiiiiiiiiiiiiiiiiiiiiiiiiiiiiiiiiiiiiiiiiiiiiiiiiiiiiiiiiiiiiiiiiiiiiii",
"iiiiiiiiiiiiiiiiiiiiiiiiiiiiiiiiiiiiiiiiiiiiiiiiiiiiiiiiiiiiiiiiiiiiiiiiiiiiiiiiiiiiiiiiiiiiiiiiiiiiiiiiiiiiiiiiiiiiiiiiiiiiiiiiii",
"iiiiiiiiiiiiiiiiiiiiiiiiiiiiiiiiiiiiiiiiiiiiiiiiiiiiiiiiiiiiiiiiiiiiiiiiiiiiiiiiiiiiiiiiiiiiiiiiiiiiiiiiiiiiiiiiiiiiiiiiiiiiiiiiii",
"iiiiiiiiiiiiiiiiiiiiiiiiiiiiiiiiiiiiiiiiiiiiiiiiiiiiiiiiiiiiiiiiiiiiiiiiiiiiiiiiiiiiiiiiiiiiiiiiiiiiiiiiiiiiiiiiiiiiiiiiiiiiiiiiii",
"iiiiiiiiiiiiiiiiiiiiiiiiiiiiiiiiiiiiiiiiiiiiiiiiiiiiiiiiiiiiiiiiiiiiiiiiiiiiiiiiiiiiiiiiiiiiiiiiiiiiiiiiiiiiiiiiiiiiiiiiiiiiiiiiii",
"iiiiiiiiiiiiiiiiiiiiiiiiiiiiiiiiiiiiiiiiiiiiiiiiiiiiiiiiiiiiiiiiiiiiiiiiiiiiiiiiiiiiiiiiiiiiiiiiiiiiiiiiiiiiiiiiiiiiiiiiiiiiiiiiii",
"iiiiiiiiiiiiiiiiiiiiiiiiiiiiiiiiiiiiiiiiiiiiiiiiiiiiiiiiiiiiiiiiiiiiiiiiiiiiiiiiiiiiiiiiiiiiiiiiiiiiiiiiiiiiiiiiiiiiiiiiiiiiiiiiii",
"iiiiiiiiiiiiiiiiiiiiiiiiiiiiiiiiiiiiiiiiiiiiiiiiiiiiiiiiiiiiiiiiiiiiiiiiiiiiiiiiiiiiiiiiiiiiiiiiiiiiiiiiiiiiiiiiiiiiiiiiiiiiiiiiii",
"iiiiiiiiiiiiiiiiiiiiiiiiiiiiiiiiiiiiiiiiiiiiiiiiiiiiiiiiiiiiiiiiiiiiiiiiiiiiiiiiiiiiiiiiiiiiiiiiiiiiiiiiiiiiiiiiiiiiiiiiiiiiiiiiii",
"iiiiiiiiiiiiiiiiiiiiiiiiiiiiiiiiiiiiiiiiiiiiiiiiiiiiiiiiiiiiiiiiiiiiiiiiiiiiiiiiiiiiiiiiiiiiiiiiiiiiiiiiiiiiiiiiiiiiiiiiiiiiiiiiii",
"iiiiiiiiiiiiiiiiiiiiiiiiiiiiiiiiiiiiiiiiiiiiiiiiiiiiiiiiiiiiiiiiiiiiiiiiiiiiiiiiiiiiiiiiiiiiiiiiiiiiiiiiiiiiiiiiiiiiiiiiiiiiiiiiii",
"iiiiiiiiiiiiiiiiiiiiiiiiiiiiiiiiiiiiiiiiiiiiiiiiiiiiiiiiiiiiiiiiiiiiiiiiiiiiiiiiiiiiiiiiiiiiiiiiiiiiiiiiiiiiiiiiiiiiiiiiiiiiiiiiii",
"iiiiiiiiiiiiiiiiiiiiiiiiiiiiiiiiiiiiiiiiiiiiiiiiiiiiiiiiiiiiiiiiiiiiiiiiiiiiiiiiiiiiiiiiiiiiiiiiiiiiiiiiiiiiiiiiiiiiiiiiiiiiiiiiii",
"iiiiiiiiiiiiiiiiiiiiiiiiiiiiiiiiiiiiiiiiiiiiiiiiiiiiiiiiiiiiiiiiiiiiiiiiiiiiiiiiiiiiiiiiiiiiiiiiiiiiiiiiiiiiiiiiiiiiiiiiiiiiiiiiii",
"iiiiiiiiiiiiiiiiiiiiiiiiiiiiiiiiiiiiiiiiiiiiiiiiiiiiiiiiiiiiiiiiiiiiiiiiiiiiiiiiiiiiiiiiiiiiiiiiiiiiiiiiiiiiiiiiiiiiiiiiiiiiiiiiii",
"iiiiiiiiiiiiiiiiiiiiiiiiiiiiiiiiiiiiiiiiiiiiiiiiiiiiiiiiiiiiiiiiiiiiiiiiiiiiiiiiiiiiiiiiiiiiiiiiiiiiiiiiiiiiiiiiiiiiiiiiiiiiiiiiii",
"iiiiiiiiiiiiiiiiiiiiiiiiiiiiiiiiiiiiiiiiiiiiiiiiiiiiiiiiiiiiiiiiiiiiiiiiiiiiiiiiiiiiiiiiiiiiiiiiiiiiiiiiiiiiiiiiiiiiiiiiiiiiiiiiii",
"iiiiiiiiiiiiiiiiiiiiiiiiiiiiiiiiiiiiiiiiiiiiiiiiiiiiiiiiiiiiiiiiiiiiiiiiiiiiiiiiiiiiiiiiiiiiiiiiiiiiiiiiiiiiiiiiiiiiiiiiiiiiiiiiii",
"iiiiiiiiiiiiiiiiiiiiiiiiiiiiiiiiiiiiiiiiiiiiiiiiiiiiiiiiiiiiiiiiiiiiiiiiiiiiiiiiiiiiiiiiiiiiiiiiiiiiiiiiiiiiiiiiiiiiiiiiiiiiiiiiii",
"iiiiiiiiiiiiiiiiiiiiiiiiiiiiiiiiiiiiiiiiiiiiiiiiiiiiiiiiiiiiiiiiiiiiiiiiiiiiiiiiiiiiiiiiiiiiiiiiiiiiiiiiiiiiiiiiiiiiiiiiiiiiiiiiii",
"iiiiiiiiiiiiiiiiiiiiiiiiiiiiiiiiiiiiiiiiiiiiiiiiiiiiiiiiiiiiiiiiiiiiiiiiiiiiiiiiiiiiiiiiiiiiiiiiiiiiiiiiiiiiiiiiiiiiiiiiiiiiiiiiii",
"iiiiiiiiiiiiiiiiiiiiiiiiiiiiiiiiiiiiiiiiiiiiiiiiiiiiiiiiiiiiiiiiiiiiiiiiiiiiiiiiiiiiiiiiiiiiiiiiiiiiiiiiiiiiiiiiiiiiiiiiiiiiiiiiii",
"iiiiiiiiiiiiiiiiiiiiiiiiiiiiiiiiiiiiiiiiiiiiiiiiiiiiiiiiiiiiiiiiiiiiiiiiiiiiiiiiiiiiiiiiiiiiiiiiiiiiiiiiiiiiiiiiiiiiiiiiiiiiiiiiii",
"iiiiiiiiiiiiiiiiiiiiiiiiiiiiiiiiiiiiiiiiiiiiiiiiiiiiiiiiiiiiiiiiiiiiiiiiiiiiiiiiiiiiiiiiiiiiiiiiiiiiiiiiiiiiiiiiiiiiiiiiiiiiiiiiii",
"iiiiiiiiiiiiiiiiiiiiiiiiiiiiiiiiiiiiiiiiiiiiiiiiiiiiiiiiiiiiiiiiiiiiiiiiiiiiiiiiiiiiiiiiiiiiiiiiiiiiiiiiiiiiiiiiiiiiiiiiiiiiiiiiii",
"iiiiiiiiiiiiiiiiiiiiiiiiiiiiiiiiiiiiiiiiiiiiiiiiiiiiiiiiiiiiiiiiiiiiiiiiiiiiiiiiiiiiiiiiiiiiiiiiiiiiiiiiiiiiiiiiiiiiiiiiiiiiiiiiii",
"iiiiiiiiiiiiiiiiiiiiiiiiiiiiiiiiiiiiiiiiiiiiiiiiiiiiiiiiiiiiiiiiiiiiiiiiiiiiiiiiiiiiiiiiiiiiiiiiiiiiiiiiiiiiiiiiiiiiiiiiiiiiiiiiii",
"iiiiiiiiiiiiiiiiiiiiiiiiiiiiiiiiiiiiiiiiiiiiiiiiiiiiiiiiiiiiiiiiiiiiiiiiiiiiiiiiiiiiiiiiiiiiiiiiiiiiiiiiiiiiiiiiiiiiiiiiiiiiiiiiii",
"iiiiiiiiiiiiiiiiiiiiiiiiiiiiiiiiiiiiiiiiiiiiiiiiiiiiiiiiiiiiiiiiiiiiiiiiiiiiiiiiiiiiiiiiiiiiiiiiiiiiiiiiiiiiiiiiiiiiiiiiiiiiiiiiii",
"iiiiiiiiiiiiiiiiiiiiiiiiiiiiiiiiiiiiiiiiiiiiiiiiiiiiiiiiiiiiiiiiiiiiiiiiiiiXXXiiiiiiiiiiiiiiiiiiiiiiiiiiiiiiiiiiiiiiiiiiiiiiiiiiii",
"iiiiiiiiiiiiiiiiiiiiiiiiiiiiiiiiiiiiiiiiiiiiiiiiiiiiiiiiiiiiiiiiiiiXXXiiiiu>;>Xiiiiiiiiiiiiiiiiiiiiiiiiiiiiiiiiiiiiiiiiiiiiiiiiiii",
"iiiiiiiiiiiiiiiiiiiiiiiiiiiiiiiiiiiiiiiiiiiiiiiiiiiiiiiiiiiiiiiiiiX>;>&iuXu<>uXiiiiiiiiiiiiiiiiiiiiiiiiiiiiiiiiiiiiiiiiiiiiiiiiiii",
"iiiiiiiiiiiiiiiiiiiiiiiiiiiiiiiiiiiiiiiiiiiiiiiiiiiiiiiiiiiiXXXiiiXu>uuuuq&uu>XiiiiiXXXiiiiiiiiiiiiiiiiiiiiiiiiiiiiiiiiiiiiiiiiiii",
"iiiiiiiiiiiiiiiiiiiiiiiiiiiiiiiiiiiiiiiiiiiXXXiiiiiiiiiiiiiX>;>XiiX>;5uuuu5;& iiiiiX>;>Xiiiiiiiiiiiiiiiiiiiiiiiiiiiiiiiiiiiiiiiiii",
"iiiiiiiiiiiiiiiiiiiiiiiiiiiiiiiiiiiiiiiiiiX>;>&iiiiiiiiiiiiXu>uXiiiXXuqutuueuiiiiiiXu>uXiiiiiiiiiiiiiiiiiiiiiiiiiiiiiiiiiiiiiiiiii",
"iiiiiiiiiiiiiiiiiiiiiiiiiiiiiiiiiiiiiiiiiiXu>u+uXXiiiiiiiii #;>Xiiiiiuutrete5&iiiii 5u#Xiiiiiiiiiiiiiiiiiiiiiiiiiiiiiiiiiiiiiiiiii",
"iiiiiiiiiiiiiiiiiiiiiiiiiiiiiiiiiiiiiiiiiiX>;>&>;>XiiiiiiXX X+ iiii&55u9y0wuu+iiiiiX5uXiiiiiiiiiiiiiiiiiiiiiiiiiiiiiiiiiiiiiiiiiii",
"iiiiiiiiiiiiiiiiiiiiiiiiiiiiiiiiiiiiiiiiiiiXXuuu2<5iiiii5qu#u5&iiX>92-=4rtqtu5ii&uu&uu5iiiXXXiiiiiiiiiiiiiiiiiiiiiiiiiiiiiiiiiiiii",
"iiiiiiiiiiiiiiiiiiiiiiiiiiiiiiiiiiiiiiiiiiiiii&5-<uiiii550u0ue<>&55w89355qur&&&#5uuuueqXiX>;>Xiiiiiiiiiiiiiiiiiiiiiiiiiiiiiiiiiiii",
"iiiiiiiiiiiiiiiiiiiiiiiiiiiiiiiiiiiiiiiiiiiiiiuu;<qXXiu>rrwruuq3uq0r9r6e0q5uX5urutue4ee5iXu>uXiiiiiiiiiiiiiiiiiiiiiiiiiiiiiiiiiiii",
"iiiiiiiiiiiiiiiiiiiiiiiiiiiiiiiiiiiiiiiiiiiiiii5<uq%>&5;uweuyeewue8tryueqe5#&&8teyyu08u&iX>;>Xiiiiiiiiiiiiiiiiiiiiiiiiiiiiiiiiiiii",
"iiiiiiiiiiiiiiiiiiiiiiiiiiiiiiiiiiiiiiiiiiiiiiiX<uu><>u57urretuuu9qtwtuuet3<O&7wywqqyrr&iiXXXiiiiiiiiiiiiiiiiiiiiiiiiiiiiiiiiiiiii",
"iiiiiiiiiiiiiiiiiiiiiiiiiiiiiiiiiiiiiiiiiiiiiii&;7q-5;u7eteuqtuururuuuuuutq52875trw6t8r&iiiiiiiiiiiiiiiiiiiiiiiiiiiiiiiiiiiiiiiiii",
"iiiiiiiiiiiiiiiiiiiiiiiiiiiiiiiiiiiiiiiiiii&u+iX58e3&<575uuu0uuyuuuuuuuuututqu8urue0t7e&iiiiiiiiiiiiiiiiiiiiiiiiiiiiiiiiiiiiiiiiii",
"iiiiiiiiiiiiiiiiiiiiiiiiiiiiiiiiiiiiiiiiiiXqu>>XO552<@:75uuuuuuyuuuuuuuuyuuyuuwuuu7uue&++u5iiiiiiiiiiiiiiiiiiiiiiiiiiiiiiiiiiiiiii",
"iiiiiiiiiiiiiiiiiiiiiiiiiiiiiiiiiiiiiiiiiiXee55$<9u55,7utruuuuuuuuuuuuuuuuutuuttyuture&&>u95iiiiiiiiiiiiiiiiiiiiiiiiiiiiiiiiiiiiii",
"iiiiiiiiiiiiiiiiiiiiiiiiiiiiiiiiiiiiiiiiii >7<t37uutte0eyuuuuuuuuuuuuuuuuuuuuuutuuuu0r2qqrt&iiiiiiiiiiiiiiiiiiiiiiiiiiiiiiiiiiiiii",
"iiiiiiiiiiiiiiiiiiiiiiiiiiiiiiiiiiiiiiiiiii$<2u8uuuuuuytuuuuuuuuuuuuuuuuuuuuuuuutuuueu78reu5iiiiiiiiiiiiiiiiiiiiiiiiiiiiiiiiiiiiii",
"iiiiiiiiiiiiiiiiiiiiiiiiiiiiiiiiiiiiiiiiiii<t6tquuuuuuuuuuuuuuuuuuuuuuuuuuuuuuuuuuuueu8ruru&iiiiiiiiiiiiiiiiiiiiiiiiiiiiiiiiiiiiii",
"iiiiiiiiiiiiiiiiiiiiiiiiiiiiiiiiiiiiiiXuXiX5uuutyuuuuuuuuuuuuuuuuuuuuuuuuuuuuuuuuttuuu80uue5iiiiiiiiiiiiiiiiiiiiiiiiiiiiiiiiiiiiii",
"iiiiiiiiiiiiiiiiiiiiiiiiiiiiiiiiiiiii55u5&>qr0uuuuuuuuuuuuuuuuuuuuuuuuuuuuuuuuuuuuuu8u70uu+iiiiiiiiiiiiiiiiiiiiiiiiiiiiiiiiiiiiiii",
"iiiiiiiiiiiiiiiiiiiiiiiiiiiiiiiiiiiiuq0u0u;qe0uuuuuuuuuuuuuuuuuuuuuuuuuuuuuuuuuuuuuuuu2quuiiiiiiiiiiiiiiiiiiiiiiiiiiiiiiiiiiiiiiii",
"iiiiiiiiiiiiiiiiiiiiiiiiiiiiiiiiiiii5ueq5u50quuyuuuuuuuuuuuuuuuuuuuuuuuuuuuuuuuuuuuuq8&&iiiiiiiiiiiiiiiiiiiiiiiiiiiiiiiiiiiiiiiiii",
"iiiiiiiiiiiiiiiiiiiiiiiiiiiiiiiiiiiXq7rr0u3uwuqruuuuuuuuuuuuuuuuuuuuuuuuuuuuuuuuuuuuu8& iX+XXiiiiiiiiiiiiiiiiiiiiiiiiiiiiiiiiiiiii",
"iiiiiiiiiiiiiiiiiiiiiiiiiiiiiiiiiiiX5ereuu1ueweuuuuuuuuuuuuuuuuuuuuuuuuuuuuuuuuuuuuu95e&#&9555Xiiiiiiiiiiiiiiiiiiiiiiiiiiiiiiiiiii",
"iiiiiiiiiiiiiiiiiiiiiiiiiiiiiiiiiiiX55tteu3quyrtuuuuuuuuuuuuuuuuuuuuuuuuuuuuuuuuuuueueu383u5,95&iiiiiiiiiiiiiiiiiiiiiiiiiiiiiiiiii",
"iiiiiiiiiiiiiiiiiiiiiiiiiiiiiiiiiiii&u558e2u8wuuuuuuuuuuuuuuuuuuuuuuuuuuuuuuuuuuuuutteuw97u70uu>Xiiiiiiiiiiiiiiiiiiiiiiiiiiiiiiiii",
"iiiiiiiiiiiiiiiiiiiiiiiiiiiiiiiiiiiiii&u&+O90wqruuuuuuuuuuuuuuuuuuuuuuuuuuuuuuuuuuut9uuq6queqrquXiiiiiiiiiiiiiiiiiiiiiiiiiiiiiiiii",
"iiiiiiiiiiiiiiiiiiiiiiiiiiiiiiiiiiiiiiiiiii>2547quuuuuuuuuuuuuuuuuuuuuuuuuuuuuuuuuuu70u0eu5u555>Xiiiiiiiiiiiiiiiiiiiiiiiiiiiiiiiii",
"iiiiiiiiiiiiiiiiiiiiiiiiiiiiiiiiiiiiiiiiiii&9>07euuuuuuuuuuuuuuuuuuuuuuuuuuuuuuuutuuu0t755iiXX5Xiiiiiiiiiiiiiiiiiiiiiiiiiiiiiiiiii",
"iiiiiiiiiiiiiiiiiiiiiiiiiiiiiiiiiiiiiiiiii&u8057uuuuuuuuuuuuuuuuuuuuuuuuuuuuuuuuutuuu55#Xiiiiiiiiiiiiiiiiiiiiiiiiiiiiiiiiiiiiiiiii",
"iiiiiiiiiiiiiiiiiiiiiiiiiiiiiiiiiiiiiiiii&;u7teuuuuuuuuuuuuuuuuuuuuuuuuuuuuuuuuuyrtutu#iiiiiiiiiiiiiiiiiiiiiiiiiiiiiiiiiiiiiiiiiii",
"iiiiiiiiiiiiiiiiiiiiiiiiiiiiiiiiiiiiiiiii&5tuuruuuuuuuuuuuuuuuuuuuuuuuuuuuuuuuuuuruuquq iiiiiiiiiiiiiiiiiiiiiiiiiiiiiiiiiiiiiiiiii",
"iiiiiiiiiiiiiiiiiiiiiiiiiiiiiiiiiiiiiiiii570teeuuuuuuuuuuuuuuuuuuuuuuuuuuuuuuuuuyuyu072;uiiiiiiiiiiiiiiiiiiiiiiiiiiiiiiiiiiiiiiiii",
"iiiiiiiiiiiiiiiiiiiiiiiiiiiiiiiiiiiiiiiiiq70rtuuuuuuuuuuuuuuuuuuuuuuuuuuuuuuuuuuturtteu0>+Xiiiiiiiiiiiiiiiiiiiiiiiiiiiiiiiiiiiiiii",
"iiiiiiiiiiiiiiiiiiiiiiiiiiiiiiiiiiiiiiiiuu56wtuuuuuuuuuuuuuuuuuuuuuuuuuuuuuuuuuuuuuu7t005&Xuiiiiiiiiiiiiiiiiiiiiiiiiiiiiiiiiiiiiii",
"iiiiiiiiiiiiiiiiiiiiiiiiiiiiiiiiiiiiiiiiuue5qutuuuuuuuuuuuuuuuuuuuuuuuuuuuuuuuuuuuyr00q2q+XuiiiXXXiiiiiiiiiiiiiiiiiiiiiiiiiiiiiiii",
"iiiiiiiiiiiiiiiiiiiiiiiiiiiiiiiiiiiiiii5eute7tuyuuuuuuuuuuuuuuuuuuuuuuuuuuuuuuuuuutyuwq12+#+uiX>;>Xiiiiiiiiiiiiiiiiiiiiiiiiiiiiiii",
"iiiiiiiiiiiiiiiiiiiiiiiiiiiiiiiiiiiiiiiu0uuw7ut0uuuuuuuuuuuuuuuuuuuuuuuuuuuuuuuuuuuuuur3e>2<5uXu>uXiiiiiiiiiiiiiiiiiiiiiiiiiiiiiii",
"iiiiiiiiiiiiiiiiiiiiiiiiiiiiiiiiiiiiiiu50uqt7qr9yuuuuuuuuuuuuuuuuuuuuuuuuuuuuuuuuuuuuye59377u& >;>Xiiiiiiiiiiiiiiiiiiiiiiiiiiiiiii",
"iiiiiiiiiiiiiiiiiiiiiiiiiiiiiiiiiiiiXX&&uut552,qtuuuuuuuuuuuuuuuuuuuuuuuuuuuuuuuuuuutu82u0wtu5iXXXiiiiiiiiiiiiiiiiiiiiiiiiiiiiiiii",
"iiiiiiiiiiiiiiiiiiiiiiiiiiiiiiiiiiiX>;5+u5>e>:7uuuuuuuuuuuuuuuuuuuuuuuuuuuuuuuuuuueu0w7quuwu8uiiiiiiiiiiiiiiiiiiiiiiiiiiiiiiiiiiii",
"iiiiiiiiiiiiiiiiiiiiiiiiiiiiiiiiiiiXu>55&<-u875uuuuuuuuuuuuuuuuuuuuuuuuuuuuuuuuuyue0ee2uu97uu&iiiiiiiiiiiiiiiiiiiiiiiiiiiiiiiiiiii",
"iiiiiiiiiiiiiiiiiiiiiiiiiiiiiiiiiiiX><<u>u,70587uytuuuuuuuuuuuuuuuuuuuuuuuuuuuuuuu358r>&u5555iiiiiiiiiiiiiiiiiiiiiiiiiiiiiiiiiiiii",
"iiiiiiiiiiiiiiiiiiiiiiiiiiiiiiiiiiiiX+5u,r7e75<twqruuuuuuuuuuuuuuuuuuuuuuuuuuuuuuu:;5u9&iiuuiiiiiiiiiiiiiiiiiiiiiiiiiiiiiiiiiiiiii",
"iiiiiiiiiiiiiiiiiiiiiiiiiiiiiiiiiiiiii5u-925><<57euuwuuuuuuuuuuuuuuuuuuuuuuuquuut0$+>92& iiiiiiiiiiiiiiiiiiiiiiiiiiiiiiiiiiiiiiiii",
"iiiiiiiiiiiiiiiiiiiiiiiiiiiiiiiiiiiiXX55+u&>&&>5u6uu0uuuuuuuuuuuuuuuuuuuuur7euuu0,oXu52<Xiiiiiiiiiiiiiiiiiiiiiiiiiiiiiiiiiiiiiiiii",
"iiiiiiiiiiiiiiiiiiiiiiiiiiiiiiiiiiiX>;55iiiu&uuuq0uuwuuuuutuuueuuuuuuuuuuu8;euuqu3&#>q;>Xiiiiiiiiiiiiiiiiiiiiiiiiiiiiiiiiiiiiiiiii",
"iiiiiiiiiiiiiiiiiiiiiiiiiiiiiiiiiiiXu>uXiiiu&&uureuqyyuuuwqeuuruuuuuuuuuu85,5ut8tt55;&XXiiiiiiiiiiiiiiiiiiiiiiiiiiiiiiiiiiiiiiiiii",
"iiiiiiiiiiiiiiiiiiiiiiiiiiiiiiiiiiiX>;>Xiiiu5uuuwuutyure71weturrrytttte5ueu:;005tutu55iiiiiiiiiiiiiiiiiiiiiiiiiiiiiiiiiiiiiiiiiiii",
"iiiiiiiiiiiiiiiiiiiiiiiiiiiiiiiiiiiiXXXiiii&>>uuquuweetu:>96tuwtteuueq90q5q;*:2euuqu&Xiiiiiiiiiiiiiiiiiiiiiiiiiiiiiiiiiiiiiiiiiiii",
"iiiiiiiiiiiiiiiiiiiiiiiiiiiiiiiiiiiiiiiiii&>555ueu58tr78&3eeutrywrut88tqeu357:9quuu55iiiiiiiiiiiiiiiiiiiiiiiiiiiiiiiiiiiiiiiiiiiii",
"iiiiiiiiiiiiiiiiiiiiiiiiiiiiiiiiiiiiiiiXXu+u2u5rut6tuq3--:75t6tu00r34t6rqt,uu5uu&5uuXiiiiiiiiiiiiiiiiiiiiiiiiiiiiiiiiiiiiiiiiiiiii",
"iiiiiiiiiiiiiiiiiiiiiiiiiiiiiiiiiiiiiiX>;>&><uu0trwee,5&$2332>>e5&&>7qtqu3;3qqu2<>;u#Xiiiiiiiiiiiiiiiiiiiiiiiiiiiiiiiiiiiiiiiiiiii",
"iiiiiiiiiiiiiiiiiiiiiiiiiiiiiiiiiiiiiiXu>u+u5u<5ttt0e#+++8<,u&++XXX&u5u8u8<;<5u82ueeuXiiiiiiiiiiiiiiiiiiiiiiiiiiiiiiiiiiiiiiiiiiii",
"iiiiiiiiiiiiiiiiiiiiiiiiiiiiiiiiiiiiiiX>;>&iiiXu>505>iiX%t67q5&uXi #>5t,55u>5&u2:u9<>Xiiiiiiiiiiiiiiiiiiiiiiiiiiiiiiiiiiiiiiiiiiii",
"iiiiiiiiiiiiiiiiiiiiiiiiiiiiiiiiiiiiiiiXXXiiiiiiO>8-+iX<7uteq&Xuiii#>5u53=5<5;5q<q&5Xiiiiiiiiiiiiiiiiiiiiiiiiiiiiiiiiiiiiiiiiiiiii",
"iiiiiiiiiiiiiiiiiiiiiiiiiiiiiiiiiiiiiiiiiiiiiiii+555.&&uuu8u>Xiiiii&>r5e6e<82<u&5&iiiiiiiiiiiiiiiiiiiiiiiiiiiiiiiiiiiiiiiiiiiiiiii",
"iiiiiiiiiiiiiiiiiiiiiiiiiiiiiiiiiiiiiiiiiiiiiiiiX>;> 5<u7u395iiiiiiX;u8u8u8q5>&iiiiiiiiiiiiiiiiiiiiiiiiiiiiiiiiiiiiiiiiiiiiiiiiiii",
"iiiiiiiiiiiiiiiiiiiiiiiiiiiiiiiiiiiiiiiiiiiiiiiiiXXXiu>ue9;5iiXXXiiX>u97ru95uXiiiiiiiiiiiiiiiiiiiiiiiiiiiiiiiiiiiiiiiiiiiiiiiiiiii",
"iiiiiiiiiiiiiiiiiiiiiiiiiiiiiiiiiiiiiiiiiiiiiiiiiiiiiiX5+XXiiX>;>Xi&q959u7euiiiiiiiiiiiiiiiiiiiiiiiiiiiiiiiiiiiiiiiiiiiiiiiiiiiiii",
"iiiiiiiiiiiiiiiiiiiiiiiiiiiiiiiiiiiiiiiiiiiiiiiiiiiiiiiiiiiiiXu>uXiXueuuu>+iiiiiiiiiiiiiiiiiiiiiiiiiiiiiiiiiiiiiiiiiiiiiiiiiiiiiii",
"iiiiiiiiiiiiiiiiiiiiiiiiiiiiiiiiiiiiiiiiiiiiiiiiiiiiiiiiiiiiiX>;>XiX>;>uiiiiiiiiiiiiiiiiiiiiiiiiiiiiiiiiiiiiiiiiiiiiiiiiiiiiiiiiii",
"iiiiiiiiiiiiiiiiiiiiiiiiiiiiiiiiiiiiiiiiiiiiiiiiiiiiiiiiiiiiiiXXXiiiXXXiiiiiiiiiiiiiiiiiiiiiiiiiiiiiiiiiiiiiiiiiiiiiiiiiiiiiiiiiii",
"iiiiiiiiiiiiiiiiiiiiiiiiiiiiiiiiiiiiiiiiiiiiiiiiiiiiiiiiiiiiiiiiiiiiiiiiiiiiiiiiiiiiiiiiiiiiiiiiiiiiiiiiiiiiiiiiiiiiiiiiiiiiiiiiii",
"iiiiiiiiiiiiiiiiiiiiiiiiiiiiiiiiiiiiiiiiiiiiiiiiiiiiiiiiiiiiiiiiiiiiiiiiiiiiiiiiiiiiiiiiiiiiiiiiiiiiiiiiiiiiiiiiiiiiiiiiiiiiiiiiii",
"iiiiiiiiiiiiiiiiiiiiiiiiiiiiiiiiiiiiiiiiiiiiiiiiiiiiiiiiiiiiiiiiiiiiiiiiiiiiiiiiiiiiiiiiiiiiiiiiiiiiiiiiiiiiiiiiiiiiiiiiiiiiiiiiii",
"iiiiiiiiiiiiiiiiiiiiiiiiiiiiiiiiiiiiiiiiiiiiiiiiiiiiiiiiiiiiiiiiiiiiiiiiiiiiiiiiiiiiiiiiiiiiiiiiiiiiiiiiiiiiiiiiiiiiiiiiiiiiiiiiii",
"iiiiiiiiiiiiiiiiiiiiiiiiiiiiiiiiiiiiiiiiiiiiiiiiiiiiiiiiiiiiiiiiiiiiiiiiiiiiiiiiiiiiiiiiiiiiiiiiiiiiiiiiiiiiiiiiiiiiiiiiiiiiiiiiii",
"iiiiiiiiiiiiiiiiiiiiiiiiiiiiiiiiiiiiiiiiiiiiiiiiiiiiiiiiiiiiiiiiiiiiiiiiiiiiiiiiiiiiiiiiiiiiiiiiiiiiiiiiiiiiiiiiiiiiiiiiiiiiiiiiii",
"iiiiiiiiiiiiiiiiiiiiiiiiiiiiiiiiiiiiiiiiiiiiiiiiiiiiiiiiiiiiiiiiiiiiiiiiiiiiiiiiiiiiiiiiiiiiiiiiiiiiiiiiiiiiiiiiiiiiiiiiiiiiiiiiii",
"iiiiiiiiiiiiiiiiiiiiiiiiiiiiiiiiiiiiiiiiiiiiiiiiiiiiiiiiiiiiiiiiiiiiiiiiiiiiiiiiiiiiiiiiiiiiiiiiiiiiiiiiiiiiiiiiiiiiiiiiiiiiiiiiii",
"iiiiiiiiiiiiiiiiiiiiiiiiiiiiiiiiiiiiiiiiiiiiiiiiiiiiiiiiiiiiiiiiiiiiiiiiiiiiiiiiiiiiiiiiiiiiiiiiiiiiiiiiiiiiiiiiiiiiiiiiiiiiiiiiii",
"iiiiiiiiiiiiiiiiiiiiiiiiiiiiiiiiiiiiiiiiiiiiiiiiiiiiiiiiiiiiiiiiiiiiiiiiiiiiiiiiiiiiiiiiiiiiiiiiiiiiiiiiiiiiiiiiiiiiiiiiiiiiiiiiii",
"iiiiiiiiiiiiiiiiiiiiiiiiiiiiiiiiiiiiiiiiiiiiiiiiiiiiiiiiiiiiiiiiiiiiiiiiiiiiiiiiiiiiiiiiiiiiiiiiiiiiiiiiiiiiiiiiiiiiiiiiiiiiiiiiii",
"iiiiiiiiiiiiiiiiiiiiiiiiiiiiiiiiiiiiiiiiiiiiiiiiiiiiiiiiiiiiiiiiiiiiiiiiiiiiiiiiiiiiiiiiiiiiiiiiiiiiiiiiiiiiiiiiiiiiiiiiiiiiiiiiii",
"iiiiiiiiiiiiiiiiiiiiiiiiiiiiiiiiiiiiiiiiiiiiiiiiiiiiiiiiiiiiiiiiiiiiiiiiiiiiiiiiiiiiiiiiiiiiiiiiiiiiiiiiiiiiiiiiiiiiiiiiiiiiiiiiii",
"iiiiiiiiiiiiiiiiiiiiiiiiiiiiiiiiiiiiiiiiiiiiiiiiiiiiiiiiiiiiiiiiiiiiiiiiiiiiiiiiiiiiiiiiiiiiiiiiiiiiiiiiiiiiiiiiiiiiiiiiiiiiiiiiii",
"iiiiiiiiiiiiiiiiiiiiiiiiiiiiiiiiiiiiiiiiiiiiiiiiiiiiiiiiiiiiiiiiiiiiiiiiiiiiiiiiiiiiiiiiiiiiiiiiiiiiiiiiiiiiiiiiiiiiiiiiiiiiiiiiii",
"iiiiiiiiiiiiiiiiiiiiiiiiiiiiiiiiiiiiiiiiiiiiiiiiiiiiiiiiiiiiiiiiiiiiiiiiiiiiiiiiiiiiiiiiiiiiiiiiiiiiiiiiiiiiiiiiiiiiiiiiiiiiiiiiii",
"iiiiiiiiiiiiiiiiiiiiiiiiiiiiiiiiiiiiiiiiiiiiiiiiiiiiiiiiiiiiiiiiiiiiiiiiiiiiiiiiiiiiiiiiiiiiiiiiiiiiiiiiiiiiiiiiiiiiiiiiiiiiiiiiii",
"iiiiiiiiiiiiiiiiiiiiiiiiiiiiiiiiiiiiiiiiiiiiiiiiiiiiiiiiiiiiiiiiiiiiiiiiiiiiiiiiiiiiiiiiiiiiiiiiiiiiiiiiiiiiiiiiiiiiiiiiiiiiiiiiii",
"iiiiiiiiiiiiiiiiiiiiiiiiiiiiiiiiiiiiiiiiiiiiiiiiiiiiiiiiiiiiiiiiiiiiiiiiiiiiiiiiiiiiiiiiiiiiiiiiiiiiiiiiiiiiiiiiiiiiiiiiiiiiiiiiii",
"iiiiiiiiiiiiiiiiiiiiiiiiiiiiiiiiiiiiiiiiiiiiiiiiiiiiiiiiiiiiiiiiiiiiiiiiiiiiiiiiiiiiiiiiiiiiiiiiiiiiiiiiiiiiiiiiiiiiiiiiiiiiiiiiii",
"iiiiiiiiiiiiiiiiiiiiiiiiiiiiiiiiiiiiiiiiiiiiiiiiiiiiiiiiiiiiiiiiiiiiiiiiiiiiiiiiiiiiiiiiiiiiiiiiiiiiiiiiiiiiiiiiiiiiiiiiiiiiiiiiii",
"iiiiiiiiiiiiiiiiiiiiiiiiiiiiiiiiiiiiiiiiiiiiiiiiiiiiiiiiiiiiiiiiiiiiiiiiiiiiiiiiiiiiiiiiiiiiiiiiiiiiiiiiiiiiiiiiiiiiiiiiiiiiiiiiii",
"iiiiiiiiiiiiiiiiiiiiiiiiiiiiiiiiiiiiiiiiiiiiiiiiiiiiiiiiiiiiiiiiiiiiiiiiiiiiiiiiiiiiiiiiiiiiiiiiiiiiiiiiiiiiiiiiiiiiiiiiiiiiiiiiii",
"iiiiiiiiiiiiiiiiiiiiiiiiiiiiiiiiiiiiiiiiiiiiiiiiiiiiiiiiiiiiiiiiiiiiiiiiiiiiiiiiiiiiiiiiiiiiiiiiiiiiiiiiiiiiiiiiiiiiiiiiiiiiiiiiii",
"iiiiiiiiiiiiiiiiiiiiiiiiiiiiiiiiiiiiiiiiiiiiiiiiiiiiiiiiiiiiiiiiiiiiiiiiiiiiiiiiiiiiiiiiiiiiiiiiiiiiiiiiiiiiiiiiiiiiiiiiiiiiiiiiii",
"iiiiiiiiiiiiiiiiiiiiiiiiiiiiiiiiiiiiiiiiiiiiiiiiiiiiiiiiiiiiiiiiiiiiiiiiiiiiiiiiiiiiiiiiiiiiiiiiiiiiiiiiiiiiiiiiiiiiiiiiiiiiiiiiii",
"iiiiiiiiiiiiiiiiiiiiiiiiiiiiiiiiiiiiiiiiiiiiiiiiiiiiiiiiiiiiiiiiiiiiiiiiiiiiiiiiiiiiiiiiiiiiiiiiiiiiiiiiiiiiiiiiiiiiiiiiiiiiiiiiii",
"iiiiiiiiiiiiiiiiiiiiiiiiiiiiiiiiiiiiiiiiiiiiiiiiiiiiiiiiiiiiiiiiiiiiiiiiiiiiiiiiiiiiiiiiiiiiiiiiiiiiiiiiiiiiiiiiiiiiiiiiiiiiiiiiii",
"iiiiiiiiiiiiiiiiiiiiiiiiiiiiiiiiiiiiiiiiiiiiiiiiiiiiiiiiiiiiiiiiiiiiiiiiiiiiiiiiiiiiiiiiiiiiiiiiiiiiiiiiiiiiiiiiiiiiiiiiiiiiiiiiii",
"iiiiiiiiiiiiiiiiiiiiiiiiiiiiiiiiiiiiiiiiiiiiiiiiiiiiiiiiiiiiiiiiiiiiiiiiiiiiiiiiiiiiiiiiiiiiiiiiiiiiiiiiiiiiiiiiiiiiiiiiiiiiiiiiii",
"iiiiiiiiiiiiiiiiiiiiiiiiiiiiiiiiiiiiiiiiiiiiiiiiiiiiiiiiiiiiiiiiiiiiiiiiiiiiiiiiiiiiiiiiiiiiiiiiiiiiiiiiiiiiiiiiiiiiiiiiiiiiiiiiii",
"iiiiiiiiiiiiiiiiiiiiiiiiiiiiiiiiiiiiiiiiiiiiiiiiiiiiiiiiiiiiiiiiiiiiiiiiiiiiiiiiiiiiiiiiiiiiiiiiiiiiiiiiiiiiiiiiiiiiiiiiiiiiiiiiii"
};
