/* XPM */
static char *result[] = {
/* columns rows colors chars-per-pixel */
"130 130 69 1 ",
"  c gray20",
". c #672626",
"X c #BB1111",
"o c #E70606",
"O c red",
"+ c #FF2300",
"@ c #FF3700",
"# c #FF4600",
"$ c #FF7D00",
"% c orange",
"& c #FFAA00",
"* c #FFAF00",
"= c #FFB900",
"- c #FFC800",
"; c #FFCD00",
": c #FFDC00",
"> c #FFE600",
", c #FFEB00",
"< c #FFF000",
"1 c #FFF500",
"2 c yellow",
"3 c #FFFF0A",
"4 c #FFFF0F",
"5 c #FFFF14",
"6 c #FFFF19",
"7 c #FFFF1E",
"8 c #FFFF28",
"9 c #FFFF2D",
"0 c #FFFF32",
"q c #FFFF37",
"w c #FFFF3C",
"e c #FFFF41",
"r c #FFFF46",
"t c #FFFF4B",
"y c #FFFF55",
"u c #FFFF5F",
"i c #FFFF64",
"p c #FFFF69",
"a c #FFFF6E",
"s c #FFFF73",
"d c #FFFF78",
"f c #FFFF7D",
"g c #FFFF82",
"h c #FFFF87",
"j c #FFFF8C",
"k c #FFFF91",
"l c #FFFF96",
"z c #FFFF9B",
"x c #FFFFA0",
"c c #FFFFA5",
"v c #FFFFAA",
"b c #FFFFAF",
"n c #FFFFB4",
"m c #FFFFB9",
"M c #FFFFBE",
"N c #FFFFC3",
"B c #FFFFC8",
"V c #FFFFCD",
"C c #FFFFD2",
"Z c #FFFFD7",
"A c #FFFFDC",
"S c #FFFFE1",
"D c #FFFFE6",
"F c #FFFFEB",
"G c ivory",
"H c #FFFFF5",
"J c #FFFFFA",
"K c white",
"L c None",
/* pixels */
"LLLLLLLLLLLLLLLLLLLLLLLLLLLLLLLLLLLLLLLLLLLLLLLLLLLLLLLLLLLLLLLLLLLLLLLLLLLLLLLLLLLLLLLLLLLLLLLLLLLLLLLLLLLLLLLLLLLLLLLLLLLLLLLLLL",
"LLLLLLLLLLLLLLLLLLLLLLLLLLLLLLLLLLLLLLLLLLLLLLLLLLLLLLLLLLLLLLLLLLLLLLLLLLLLLLLLLLLLLLLLLLLLLLLLLLLLLLLLLLLLLLLLLLLLLLLLLLLLLLLLLL",
"LLLLLLLLLLLLLLLLLLLLLLLLLLLLLLLLLLLLLLLLLLLLLLLLLLLLLLLLLLLLLLLLLLLLLLLLLLLLLLLLLLLLLLLLLLLLLLLLLLLLLLLLLLLLLLLLLLLLLLLLLLLLLLLLLL",
"LLLLLLLLLLLLLLLLLLLLLLLLLLLLLLLLLLLLLLLLLLLLLLLLLLLLLLLLLLLLLLLLLLLLLLLLLLLLLLLLLLLLLLLLLLLLLLLLLLLLLLLLLLLLLLLLLLLLLLLLLLLLLLLLLL",
"LLLLLLLLLLLLLLLLLLLLLLLLLLLLLLLLLLLLLLLLLLLLLLLLLLLLLLLLLLLLLLLLLLLLLLLLLLLLLLLLLLLLLLLLLLLLLLLLLLLLLLLLLLLLLLLLLLLLLLLLLLLLLLLLLL",
"LLLLLLLLLLLLLLLLLLLLLLLLLLLLLLLLLLLLLLLLLLLLLLLLLLLLLLLLLLLLLLLLLLLLLLLLLLLLLLLLLLLLLLLLLLLLLLLLLLLLLLLLLLLLLLLLLLLLLLLLLLLLLLLLLL",
"LLLLLLLLLLLLLLLLLLLLLLLLLLLLLLLLLLLLLLLLLLLLLLLLLLLLLLLLLLLLLLLLLLLLLLLLLLLLLLLLLLLLLLLLLLLLLLLLLLLLLLLLLLLLLLLLLLLLLLLLLLLLLLLLLL",
"LLLLLLLLLLLLLLLLLLLLLLLLLLLLLLLLLLLLLLLLLLLLLLLLLLLLLLLLLLLLLLLLLLLLLLLLLLLLLLLLLLLLLLLLLLLLLLLLLLLLLLLLLLLLLLLLLLLLLLLLLLLLLLLLLL",
"LLLLLLLLLLLLLLLLLLLLLLLLLLLLLLLLLLLLLLLLLLLLLLLLLLLLLLLLLLLLLLLLLLLLLLLLLLLLLLLLLLLLLLLLLLLLLLLLLLLLLLLLLLLLLLLLLLLLLLLLLLLLLLLLLL",
"LLLLLLLLLLLLLLLLLLLLLLLLLLLLLLLLLLLLLLLLLLLLLLLLLLLLLLLLLLLLLLLLLLLLLLLLLLLLLLLLLLLLLLLLLLLLLLLLLLLLLLLLLLLLLLLLLLLLLLLLLLLLLLLLLL",
"LLLLLLLLLLLLLLLLLLLLLLLLLLLLLLLLLLLLLLLLLLLLLLLLLLLLLLLLLLLLLLLLLLLLLLLLLLLLLLLLLLLLLLLLLLLLLLLLLLLLLLLLLLLLLLLLLLLLLLLLLLLLLLLLLL",
"LLLLLLLLLLLLLLLLLLLLLLLLLLLLLLLLLLLLLLLLLLLLLLLLLLLLLLLLLLLLLLLLLLLLLLLLLLLLLLLLLLLLLLLLLLLLLLLLLLLLLLLLLLLLLLLLLLLLLLLLLLLLLLLLLL",
"LLLLLLLLLLLLLLLLLLLLLLLLLLLLLLLLLLLLLLLLLLLLLLLLLLLLLLLLLLLLLLLLLLLLLLLLLLLLLLLLLLLLLLLLLLLLLLLLLLLLLLLLLLLLLLLLLLLLLLLLLLLLLLLLLL",
"LLLLLLLLLLLLLLLLLLLLLLLLLLLLLLLLLLLLLLLLLLLLLLLLLLLLLLLLLLLLLLLLLLLLLLLLLLLLLLLLLLLLLLLLLLLLLLLLLLLLLLLLLLLLLLLLLLLLLLLLLLLLLLLLLL",
"LLLLLLLLLLLLLLLLLLLLLLLLLLLLLLLLLLLLLLLLLLLLLLLLLLLLLLLLLLLLLLLLLLLLLLLLLLLLLLLLLLLLLLLLLLLLLLLLLLLLLLLLLLLLLLLLLLLLLLLLLLLLLLLLLL",
"LLLLLLLLLLLLLLLLLLLLLLLLLLLLLLLLLLLLLLLLLLLLLLLLLLLLLLLLLLLLLLLLLLLLLLLLLLLLLLLLLLLLLLLLLLLLLLLLLLLLLLLLLLLLLLLLLLLLLLLLLLLLLLLLLL",
"LLLLLLLLLLLLLLLLLLLLLLLLLLLLLLLLLLLLLLLLLLLLLLLLLLLLLLLLLLLLLLLLLLLLLLLLLLLLLLLLLLLLLLLLLLLLLLLLLLLLLLLLLLLLLLLLLLLLLLLLLLLLLLLLLL",
"LLLLLLLLLLLLLLLLLLLLLLLLLLLLLLLLLLLLLLLLLLLLLLLLLLLLLLLLLLLLLLLLLLLLLLLLLLLLLLLLLLLLLLLLLLLLLLLLLLLLLLLLLLLLLLLLLLLLLLLLLLLLLLLLLL",
"LLLLLLLLLLLLLLLLLLLLLLLLLLLLLLLLLLLLLLLLLLLLLLLLLLLLLLLLLLLLLLLLLLLLLLLLLLLLLLLLLLLLLLLLLLLLLLLLLLLLLLLLLLLLLLLLLLLLLLLLLLLLLLLLLL",
"LLLLLLLLLLLLLLLLLLLLLLLLLLLLLLLLLLLLLLLLLLLLLLLLLLLLLLLLLLLLLLLLLLLLLLLLLLLLLLLLLLLLLLLLLLLLLLLLLLLLLLLLLLLLLLLLLLLLLLLLLLLLLLLLLL",
"LLLLLLLLLLLLLLLLLLLLLLLLLLLLLLLLLLLLLLLLLLLLLLLLLLLLLLLLLLLLLLLLLLLLLLLLLLLLLLLLLLLLLLLLLLLLLLLLLLLLLLLLLLLLLLLLLLLLLLLLLLLLLLLLLL",
"LLLLLLLLLLLLLLLLLLLLLLLLLLLLLLLLLLLLLLLLLLLLLLLLLLLLLLLLLLLLLLLLLLLLLLLLLLLLLLLLLLLLLLLLLLLLLLLLLLLLLLLLLLLLLLLLLLLLLLLLLLLLLLLLLL",
"LLLLLLLLLLLLLLLLLLLLLLLLLLLLLLLLLLLLLLLLLLLLLLLLLLLLLLLLLLLLLLLLLLLLLLLLLLLLLLLLLLLLLLLLLLLLLLLLLLLLLLLLLLLLLLLLLLLLLLLLLLLLLLLLLL",
"LLLLLLLLLLLLLLLLLLLLLLLLLLLLLLLLLLLLLLLLLLLLLLLLLLLLLLLLLLLLLLLLLLLLLLLLLLLLLLLLyLLLLLLLLLLLLLLLLLLLLLLLLLLLLLLLLLLLLLLLLLLLLLLLLL",
"LLLLLLLLLLLLLLLLLLLLLLLLLLLLLLLLLLLLLLLLLLLLLLLLLLLLLLLLLLLLLLLLLLLLLLLLLLLLLL$$M$$LLLLLLLLLLLLLLLLLLLLLLLLLLLLLLLLLLLLLLLLLLLLLLL",
"LLLLLLLLLLLLLLLLLLLLLLLLLLLLLLLLLLLLLLLLLLLLLLLLLLLLLLLLLLLLLLLLLLLLLLyLLLLyLKXyMyXLLLLLLLLLLLLLLLLLLLLLLLLLLLLLLLLLLLLLLLLLLLLLLL",
"LLLLLLLLLLLLLLLLLLLLLLLLLLLLLLLLLLLLLLLLLLLLLLLLLLLLLLLLLLLLLLLLLLLL$$y$$y$9$yX$M$$LLLLLLLLLLLLLLLLLLLLLLLLLLLLLLLLLLLLLLLLLLLLLLL",
"LLLLLLLLLLLLLLLLLLLLLLLLLLLLLLLLLLLLLLLLLLLLLLLLLLLLLLLLLLLLyLLLLLLLXydy$$5y52$LyLLLLLLLLLLLLLLLLLLLLLLLLLLLLLLLLLLLLLLLLLLLLLLLLL",
"LLLLLLLLLLLLLLLLLLLLLLLLLLLLLLLLLLLLLLLLLLLLLLLLLLLLLLLLLL$$M$$LLLLL$yy$y:7k77$LLLLLLLLLLLLyLLLLLLLLLLLLLLLLLLLLLLLLLLLLLLLLLLLLLL",
"LLLLLLLLLLLLLLLLLLLLLLLLLLLLLLLLLLLLLyLLLLLLLLLLLLLLLLLLLLXyMyXLLLLLLX$LK74x89:$XLLLLLLLL$$M$$LLLLLLLLLLLLLLLLLLLLLLLLLLLLLLLLLLLL",
"LLLLLLLLLLLLLLLLLLLLLLLLLLLLLLLLLLL$$M$$LLLLLLLLLLLLLLLLLL$$y$$LLLLLLL$LX$8d67yd$$LLLLLLLXyMyXLLLLLLLLLLLLLLLLLLLLLLLLLLLLLLLLLLLL",
"LLLLLLLLLLLLLLLLLLLLLLLLLLLLLLLLLLLXyMyXLLLLLLLLLLLLLLLLLLLL$LLLLLLLLXXX+;isqyef,.LLLLLLL$$M$$LLLLLLLLLLLLLLLLLLLLLLLLLLLLLLLLLLLL",
"LLLLLLLLLLLLLLLLLLLLLLLLLLLLLLLLLLL$$M$$LLLyLLLLLLLLLLLyLLLLXLLLLLLLX$O$#eyuyfgy=XLLLLLLLLLyLLLLLLLLLLLLLLLLLLLLLLLLLLLLLLLLLLLLLL",
"LLLLLLLLLLLLLLLLLLLLLLLLLLLLLLLLLLLLLyLLLX+y+$LLLLLLL$:x-2O+XXLLLLL$yd9-,2qrrsrw$KLLLyX$X$LLLyLLLLLLLLLLLLLLLLLLLLLLLLLLLLLLLLLLLL",
"LLLLLLLLLLLLLLLLLLLLLLLLLLLLLLLLLLLLLLLLLO=q=OLLLLLLLy,zyd52:-XLLL$9fjy5y470238=$LL$$y--$$$X$M$$LLLyLLLLLLLLLLLLLLLLLLLLLLLLLLLLLL",
"LLLLLLLLLLLLLLLLLLLLLLLLLLLLLLLLLLLLLLLLL$@,,$.LLLLLLO7csi9eyw7$LLyxxaiwyy992%9.LLLXyqqyqy2$yMyXL$$M$$LLLLLLLLLLLLLLLLLLLLLLLLLLLL",
"LLLLLLLLLLLLLLLLLLLLLLLLLLLLLLLLLLLLLLLLLXO-:5-XLLLLL2yuxzy5yey2Xkyvjkfey90e2&7LLLL.75q4pd72kyy$LXyMyXLLLLLLLLLLLLLLLLLLLLLLLLLLLL",
"LLLLLLLLLLLLLLLLLLLLLLLLLLLLLLLLLLLLLLLLLL$:&4:2LLLLL2eyjsfi98d7$kskkfvpy0y78::LLLL.$9:4yy5$2$XLL$$M$$LLLLLLLLLLLLLLLLLLLLLLLLLLLL",
"LLLLLLLLLLLLLLLLLLLLLLLLLLLLLLLLLLLLLLLLLLL$282:LLLLL2wyfsaiy8yywdaxkzjydise8:7X$$$-:749sse7k$XLLLLyLLLLLLLLLLLLLLLLLLLLLLLLLLLLLL",
"LLLLLLLLLLLLLLLLLLLLLLLLLLLLLLLLLLLLLLLLLLL2q87-.LLL$+2eixiyzdpesisvzcksyyyy47d7$$9yii8iiar0d$LLLLLLLLLLLLLLLLLLLLLLLLLLLLLLLLLLLL",
"LLLLLLLLLLLLLLLLLLLLLLLLLLLLLLLLLLLLLLLLLLL$54w$+X$Xk*aeikisiiskjgdxclfijdppw4hdy,4rpuuysfy0k$LLLLLLLLLLLLLLLLLLLLLLLLLLLLLLLLLLLL",
"LLLLLLLLLLLLLLLLLLLLLLLLLLLLLLLLLLLLLyLLLLL$7*:,@X$Xx<yyybssapaxdzflxxskjpfh7wak57yahhaixye7yyLLLLLLLLLLLLLLLLLLLLLLLLLLLLLLLLLLLL",
"LLLLLLLLLLLLLLLLLLLLLLLLLLLLLLLLLLL$$M$$LLLLX+-=$+X$22y7wbyskslxzcfkvkpkMypayyyyayspskhzzq=+XLLLLLLLLLLLLLLLLLLLLLLLLLLLLLLLLLLLLL",
"LLLLLLLLLLLLLLLLLLLLLLLLLLLLLLLLLLLXyM22LLLLL$$-$@+$:=,qhMjfdfklnckjcjfxMfyy7ahedsksukfdw9+LLLLLLLyLLLLLLLLLLLLLLLLLLLLLLLLLLLLLLL",
"LLLLLLLLLLLLLLLLLLLLLLLLLLLLLLLLLLL$yff7OXLLLL.:2$$::$,kzVchhhMcmBxccxbnVyy4>ekrfdfjakjy7=$$LLLL$7f:$LLLLLLLLLLLLLLLLLLLLLLLLLLLLL",
"LLLLLLLLLLLLLLLLLLLLLLLLLLLLLLLLLLLL$:xyq=yXLLL$$=--$$wpkbxjlzmBCDMmcmxBMsMryxiyzkzvdggy22qx7$::9wh9XLLLLLLLLLLLLLLLLLLLLLLLLLLLLL",
"LLLLLLLLLLLLLLLLLLLLLLLLLLLLLLLLLLLLL2My09a=$$@q>w2243isxxnmBcACHGNVNBBbBbmpdzdfvzvjfaeawyfphpyzdyxyyLLLLLLLLLLLLLLLLLLLLLLLLLLLLL",
"LLLLLLLLLLLLLLLLLLLLLLLLLLLLLLLLLLLLL$Mdiis9984e8ieyrahxxMbMBMDSKJASFDJCCvvxxczlvzvlzjyppypezsjxjgs9$LLLLLLLLLLLLLLLLLLLLLLLLLLLLL",
"LLLLLLLLLLLLLLLLLLLLLLLLLLLLLLLLLLLy$$diadyafyyiuffyjhxckbBCmZSGKKHHKJKSZnmbbxNbcbbczfyepdyyglgkjfj7KLLLLLLLLLLLLLLLLLLLLLLLLLLLLL",
"LLLLLLLLLLLLLLLLLLLLLLLLLLLLX2XLL$$yk7hjpuyypdhjhxjlmcbvxNNCBGFKKKKKKKKFSNCmmmMMzbczzfiiigrizkaupja2LLLLLLLLLLLLLLLLLLLLLLLLLLLLLL",
"LLLLLLLLLLLLLLLLLLLLLLLLLLL$fk9$$$2kyxkdssuusjlhcmzlMbvmbBVAZKHKKKKKKKGGDAAVNmMBmbvxbuiykfgypkypyakLLLLLLLLLLLLLLLLLLLLLLLLLLLLLLL",
"LLLLLLLLLLLLLLLLLLLLLLLLLLL:Mdh$$$9k5xexpsuujjxjnMmbBmmnmZZCDKKKJKKKFJGDHDZCBBmnbMbhvkysjfiyhqf-k2LLLLLLLLLLLLLLLLLLLLLLLLLLLLLLLL",
"LLLLLLLLLLLLLLLLLLLLLLLLLLL:zjC-y@qa:97irrauzcmxmNvbMVMmNZZSHKHJGGJHDGGDFSSZFCCbccxvvzaahhyh9yyLLLLLLLLLLLLLLLLLLLLLLLLLLLLLLLLLLL",
"LLLLLLLLLLLLLLLLLLLLLLLLLLL:yyM$y7pepq7677gfxdbxNnmmNBBNVAZSKKKKHASDFGFDAAADKHZVnvxlxjuudyyd2LLLLLLLLLLLLLLLLLLLLLLLLLLLLLLLLLLLLL",
"LLLLLLLLLLLLLLLLLLLLLLLLLL$7q5y=7esyryfy1epsvhSmmnNBVBVCCCAFKKKKFASSFDGFACDKKKGFMBbbzxgsfu0dMLLLLLLLLLLLLLLLLLLLLLLLLLLLLLLLLLLLLL",
"LLLLLLLLLLLLLLLLLLLLLLLLLLXyq,xyrsifiyis7yyjklAVBnBCCCZADSFFKKKKHZCAFGGFZDFKKKKGZCvnjmxhffydMLLLLLLLLLLLLLLLLLLLLLLLLLLLLLLLLLLLLL",
"LLLLLLLLLLLLLLLLLLLLLLLLLL$$y7dyuuys8xff8pdznvCBMNNCAVFDFFJJKKKKKSASGGHSAFKKKKKGZAcnjMzgusy9MLLL.2$$X$XLLLLLLLLLLLLLLLLLLLLLLLLLLL",
"LLLLLLLLLLLLLLLLLLLLLLLLLLLLy$2prxyypcisyyicnxBmnBBDDSJHKKKKKKKKKKHJKKKHSJKKKKHGCNMbhbfarwy72OO7,d97y99yXLLLLLLLLLLLLLLLLLLLLLLLLL",
"LLLLLLLLLLLLLLLLLLLLLLLLLLLLLL2dezyyhxygrysgkxnSvZNFFDKKKKKKKKKKKKKKKKKKJJKKKDFZVBmnlbi0859f9:q78fMdkhhk:$LLLLLLLLLLLLLLLLLLLLLLLL",
"LLLLLLLLLLLLLLLLLLLLLLLLLLLLLLL$::yydfiieesggnvCmVMSDHKKKKKKKKKKKKKKKKKKKKKKJHSADZMxcfypw22wy0r7yew55ahayXLLLLLLLLLLLLLLLLLLLLLLLL",
"LLLLLLLLLLLLLLLLLLLLLLLLLLLLLLLLLLK2ywep28ydjzMMjBMZSJKKKKKKKKKKKKKKKKKKKKKKKHFACFBMnFpyww8prufi42yy7y99$$LLLLLLLLLLLLLLLLLLLLLLLL",
"LLLLLLLLLLLLLLLLLLLLLLLLLLLLLLLLLLLL297y::7yednfkNBBZHKKKKKKKKKKKKKKKKKKKKKKHFSSZKCVKVfhwyppraye97y2y$X$LLLLLLLLLLLLLLLLLLLLLLLLLL",
"LLLLLLLLLLLLLLLLLLLLLLLLLLLLLLLLLLLL$$-@$@257fnjnBBVAHKKKKKKKKKKKKKKKKKKKKKKHDADMKSFKMzaayy7eyy2$LLLLLLLLLLLLLLLLLLLLLLLLLLLLLLLLL",
"LLLLLLLLLLLLLLLLLLLLLLLLLLLLLLLLLL$+9y$+:$7$:bfhmMBCAKKKKKKKKKKKKKKKKKKKKKKGGAVGBBvcbyyvkyf-2-yXLLLLLLLLLLLLLLLLLLLLLLLLLLLLLLLLLL",
"LLLLLLLLLLLLLLLLLLLLLLLLLLLLLLLLLLX=wv599,x*<kxknMNZAKKKKKKKKKKKKKKKKKKKKKKFFDVGCMbkvspp7,-$OXLLLLLLLLLLLLLLLLLLLLLLLLLLLLLLLLLLLL",
"LLLLLLLLLLLLLLLLLLLLLLLLLLLLLLLLLL$2yfy7yayyiMblbBVZSJKKKKKKKKKKKKKKKKKKKKKHHFASBBvmkzripw5y:XLLLLLLLLLLLLLLLLLLLLLLLLLLLLLLLLLLLL",
"LLLLLLLLLLLLLLLLLLLLLLLLLLLLLLLLLLK:adef2eshcBmnMCCFGKKKKKKKKKKKKKKKKKKKKKKHGAVACBmcgjuksrppy7$LLLLLLLLLLLLLLLLLLLLLLLLLLLLLLLLLLL",
"LLLLLLLLLLLLLLLLLLLLLLLLLLLLLLLLLLLMdkryeijgcbmmVSAJKKKKKKKKKKKKKKKKKKKKKKKFDZVCABNvjlukjysgpd$LLLLLLLLLLLLLLLLLLLLLLLLLLLLLLLLLLL",
"LLLLLLLLLLLLLLLLLLLLLLLLLLLLLLLLLLLKfzri0slfxvvBVCZGKKKKKKKKKKKKKKKKKKKKKHJHFCBAACnbzxusy8ysyMMLLLLLLLLLLLLLLLLLLLLLLLLLLLLLLLLLLL",
"LLLLLLLLLLLLLLLLLLLLLLLLLLLLLLLLLL$Xkkyy9ihhzmmNZDDFKKKKKKKKKKKKKKKKKKKKKGHKGASZVNbzlfqdy19ywx:$y2$LLLLLLLLLLLLLLLLLLLLLLLLLLLLLLL",
"LLLLLLLLLLLLLLLLLLLLLLLLLLLLLLLL$$2-y97wyyigzxMSVFSAKKKKKKKKKKKKKKKKKKKKKHJKGSDVMMNzcjye888y7y,275:$LLLLLLLLLLLLLLLLLLLLLLLLLLLLLL",
"LLLLLLLLLLLLLLLLLLLLLLLLLLLLLLLLXy72qdyayeiflxxBZBCFKKKKKKKKKKKKKKKKKKKKKKGJKFACmmmbvkjg9eey25y69yf.LLLLLLLLLLLLLLLLLLLLLLLLLLLLLL",
"LLLLLLLLLLLLLLLLLLLLLLLLLLLLLLLL$ya88pyhh8pgjfkSSNZDJKKKKKKKKKKKKKKKKKKKKGHKGJAZNNnzvkjviyyyqyq44q7$LLLLLLLyLLLLLLLLLLLLLLLLLLLLLL",
"LLLLLLLLLLLLLLLLLLLLLLLLLLLLLL$yydh9iyy8wwpyxiycCMZADKKKKKKKKKKKKKJKKKKJJGFJHKDSmMnbmmzxhyep5,5q*-$LLLLLL$$M$$LLLLLLLLLLLLLLLLLLLL",
"LLLLLLLLLLLLLLLLLLLLLLLLLLLLL$kyfyyrsiz8y27wM9rlBmCDJHKKKKKKKKKJKKFKKKKJGFHGGHSZBMmvkzklkfie2y47,:yKLLLLL.yMyXLLLLLLLLLLLLLLLLLLLL",
"LLLLLLLLLLLLLLLLLLLLLLLLLLLLL.xpfuysryy2y55qy7tbMBZSGDHJKKKKKKKHHFHHKKKJDGHFFFZZCnmxjxfgkaye7y9y72yy$$.LL$$M$$LLLLLLLLLLLLLLLLLLLL",
"LLLLLLLLLLLLLLLLLLLLLLLLLLLLLX7eryye4<52y9dvpidxbVVZADSGKKKKKKKFGGFKJKKHAGDSSAVZCnczxxgafizyqhepy5-y5a9MLLLyLLLLLLLLLLLLLLLLLLLLLL",
"LLLLLLLLLLLLLLLLLLLLLLLLLLLLLL$=4y4*$O$7y9kzspgznVNBVADFJHFHKHGFHGKJJKKKSFANVZZMbbzdzkuy0eyd97yyw:=qdxk7LLLLLLLLLLLLLLLLLLLLLLLLLL",
"LLLLLLLLLLLLLLLLLLLLLLLLLLLLyLL $2@o++:7y,yjfajcxbvVMVFAHZGHHGDFDDGFHDKGACVMMVBZBvkiyfy9;:2k75pyq2-ygvs9LLLLLLLLLLLLLLLLLLLLLLLLLL",
"LLLLLLLLLLLLLLLLLLLLLLLLLL$$M$XX.OX+$$-y=wyufkfhxxbMBSGDHNSFFAAZDFDSKKKKDBMnbmVBMcjiig92O$$$Mydy7$OfpMk7LLLLLLLLLLLLLLLLLLLLLLLLLL",
"LLLLLLLLLLLLLLLLLLLLLLLLLLXyMy.X.:o$-@=yw7uppcagnhccMBDDVbMVCCDCFFZFGDKKHcvzvmbnnzbyys8,o:$$277$LLL2,v9MLLLLLLLLLLLLLLLLLLLLLLLLLL",
"LLLLLLLLLLLLLLLLLLLLLLLLLL$$M$X$-q2,-O*7kqwupxhjzjkvmSABmnNNBBAVFDMVFBKKKbkghckxczbyrya-X$+79yy$LLLL.2XLLLLLLLLLLLLLLLLLLLLLLLLLLL",
"LLLLLLLLLLLLLLLLLLLLLLLLLLLLyLK$dy97-o=7fdeyishfhflcvMMMzknnmMVMZCmBMnKKKMMkcfxnzssyydy: 2$yy7f$LLLLLLLLLLLLLLLLLLLLLLLLLLLLLLLLLL",
"LLLLLLLLLLLLLLLLLLLLLLLLLLLLLLL$5y9y:O$255=9qyxcsfdxvMxvhhlvbNMMCnbbvjGCKFvMppdjjssafyq$.O$52yyOLLLLLLLLLLLLLLLLLLLLLLLLLLLLLLLLLL",
"LLLLLLLLLLLLLLLLLLLLLLLLLLLLLLLX7:q2$LLX$$XO=6vzjklxcMMgfkgxlmbmBMxfjkShvkkvahpMpsyak6yOX$:=,dy2$LLLLLLLLLLLLLLLLLLLLLLLLLLLLLLLLL",
"LLLLLLLLLLLLLLLLLLLLLLLLLLLLLLLL$XOXLLLLLLL2*7lhxfnVdkbeyyfhkbcbcvvzkfzwyqdkkyahpp0yp72$X$O$2yppf$LLLLLLLLLLLLLLLLLLLLLLLLLLLLLLLL",
"LLLLLLLLLLLLLLLLLLLLLLLLLLLLyLLL$LLLLLLLLLXk:3svxkcbehyypdgfkccbjvkpephwyq5dd5dqyw298y,:$y$O:ajjk$LLLLLLLLLLLLLLLLLLLLLLLLLLLLLLLL",
"LLLLLLLLLLLLLLLLLLLLLLLLLL$$M$$LLLLLLLLL2$=9qejccgskwd9:89sihzxbsfde8ywwyq,yy999,y89fyw,$yLL29yyf$LLLLLLLLLLLLLLLLLLLLLLLLLLLLLLLL",
"LLLLLLLLLLLLLLLLLLLLLLLLLLXyMyXLLLLLLLL2:9eeaykiggrpq2$;9yrsdzkcsiewwwaw7q,y,999=d49ye8d$yLy$277$LLLLLLLLLLLLLLLLLLLLLLLLLLLLLLLLL",
"LLLLLLLLLLLLLLLLLLLLLLLLLL$$M$$LLLLLLLL-2iuipykgjs0w,+$<yrrsfdzjurw27<a47q,5,9992,:7yq522$$M:yLLLLLLLLLLLLLLLLLLLLLLLLLLLLLLLLLLLL",
"LLLLLLLLLLLLLLLLLLLLLLLLLLLLyLLLLLLLLLL$4iuyywyski7:- X*ey0sijcpue2527a4w755,9=922@-::$Oy$yMyXLLLLLLLLLLLLLLLLLLLLLLLLLLLLLLLLLLLL",
"LLLLLLLLLLLLLLLLLLLLLLLLLLLLLLLLLLLLXX.$9pr8ywfifr2=$L.@267iysjhye,,2ya4y42592=92-:$$yXX$y$M$$LLLLLLLLLLLLLLLLLLLLLLLLLLLLLLLLLLLL",
"LLLLLLLLLLLLLLLLLLLLLLLLLLLLLLLLLLL$O$OO-q>247eyiry:XL.$,w88<yViyd25www4pe752y=,,=2$$$X$LKLyLLLLLLLLLLLLLLLLLLLLLLLLLLLLLLLLLLLLLL",
"LLLLLLLLLLLLLLLLLLLLLLLLLLLLLLLLLLL$$=-:2q2q7890y6f$LL$y5yq=$2kyq7:5yy<4f94y7-*77yy,72X$LLLLLLLLLLLLLLLLLLLLLLLLLLLLLLLLLLLLLLLLLL",
"LLLLLLLLLLLLLLLLLLLLLLLLLLLLLLLLyL$$2q9-9q592yepyqyLLL2xyay:.y9y=2$7:qyydr6d--:yywhy2:$$LLyLLLLLLLLLLLLLLLLLLLLLLLLLLLLLLLLLLLLLLL",
"LLLLLLLLLLLLLLLLLLLLLLLLLLLLLL$$M$Xy$y:$:y7:ypppq:XLLX7Zhhy2Ly:y+$LX+-54jieqy7=5y9yy,9:yX$y$$LLLLLLLLLLLLLLLLLLLLLLLLLLLLLLLLLLLLL",
"LLLLLLLLLLLLLLLLLLLLLLLLLLLLLLXyMyXKLy$L$y$K7vea2OLLL2xMfp9$LLLyLLLLX$fyf0p72$:+2$27,dy$$ydyXLLLLLLLLLLLLLLLLLLLLLLLLLLLLLLLLLLLLL",
"LLLLLLLLLLLLLLLLLLLLLLLLLLLLLL$$M$$LLLLLLLLLMxad:XLLL:ybgp9XLLLLLLLLL$k,vefaf:2XLLLy:y$$$$y$$LLLLLLLLLLLLLLLLLLLLLLLLLLLLLLLLLLLLL",
"LLLLLLLLLLLLLLLLLLLLLLLLLLLLLLLLyLLLLLLLLLLL$fy92LLLX78vxy2LLLLLLLLLL$M-ywbh9y$.yLLLLyLLLLyLLLLLLLLLLLLLLLLLLLLLLLLLLLLLLLLLLLLLLL",
"LLLLLLLLLLLLLLLLLLLLLLLLLLLLLLLLLLLLLLLLLLLLy2Z2$$Ly$7pahe-LLLLLLLLLL$22d8k8yKM:M$$LLLLLLLLLLLLLLLLLLLLLLLLLLLLLLLLLLLLLLLLLLLLLLL",
"LLLLLLLLLLLLLLLLLLLLLLLLLLLLLLLLLLLLLLLLLLLL$$M$KX$M:kqigw$LLLLLLLLLL$yqwepeq:y2MyXLLLLLLLLLLLLLLLLLLLLLLLLLLLLLLLLLLLLLLLLLLLLLLL",
"LLLLLLLLLLLLLLLLLLLLLLLLLLLLLLLLLLLLLLLLLLLLLLyLKXyMy2y5kyyLLLLLLLLLL2ywa7z9fdk:M$$LLLLLLLLLLLLLLLLLLLLLLLLLLLLLLLLLLLLLLLLLLLLLLL",
"LLLLLLLLLLLLLLLLLLLLLLLLLLLLLLLLLLLLLLLLLLLLLLLLL$$M$KL$2$LLLLLLLLLLL$2d9yqpzz7yyLLLLLLLLLLLLLLLLLLLLLLLLLLLLLLLLLLLLLLLLLLLLLLLLL",
"LLLLLLLLLLLLLLLLLLLLLLLLLLLLLLLLLLLLLLLLLLLLLLLLLLLyLLLLLLLLLLyLLLLLLL:y:$ypdh:KLLLLLLLLLLLLLLLLLLLLLLLLLLLLLLLLLLLLLLLLLLLLLLLLLL",
"LLLLLLLLLLLLLLLLLLLLLLLLLLLLLLLLLLLLLLLLLLLLLLLLLLLLLLLLLLLL$$M$$LLLLX7x7$M9kf$LLLLLLLLLLLLLLLLLLLLLLLLLLLLLLLLLLLLLLLLLLLLLLLLLLL",
"LLLLLLLLLLLLLLLLLLLLLLLLLLLLLLLLLLLLLLLLLLLLLLLLLLLLLLLLLLLLXyMyXLLLLXyMyXKX2XLLLLLLLLLLLLLLLLLLLLLLLLLLLLLLLLLLLLLLLLLLLLLLLLLLLL",
"LLLLLLLLLLLLLLLLLLLLLLLLLLLLLLLLLLLLLLLLLLLLLLLLLLLLLLLLLLLL$$M$$LLLL$$M$$LLLLLLLLLLLLLLLLLLLLLLLLLLLLLLLLLLLLLLLLLLLLLLLLLLLLLLLL",
"LLLLLLLLLLLLLLLLLLLLLLLLLLLLLLLLLLLLLLLLLLLLLLLLLLLLLLLLLLLLLLyLLLLLLLLyLLLLLLLLLLLLLLLLLLLLLLLLLLLLLLLLLLLLLLLLLLLLLLLLLLLLLLLLLL",
"LLLLLLLLLLLLLLLLLLLLLLLLLLLLLLLLLLLLLLLLLLLLLLLLLLLLLLLLLLLLLLLLLLLLLLLLLLLLLLLLLLLLLLLLLLLLLLLLLLLLLLLLLLLLLLLLLLLLLLLLLLLLLLLLLL",
"LLLLLLLLLLLLLLLLLLLLLLLLLLLLLLLLLLLLLLLLLLLLLLLLLLLLLLLLLLLLLLLLLLLLLLLLLLLLLLLLLLLLLLLLLLLLLLLLLLLLLLLLLLLLLLLLLLLLLLLLLLLLLLLLLL",
"LLLLLLLLLLLLLLLLLLLLLLLLLLLLLLLLLLLLLLLLLLLLLLLLLLLLLLLLLLLLLLLLLLLLLLLLLLLLLLLLLLLLLLLLLLLLLLLLLLLLLLLLLLLLLLLLLLLLLLLLLLLLLLLLLL",
"LLLLLLLLLLLLLLLLLLLLLLLLLLLLLLLLLLLLLLLLLLLLLLLLLLLLLLLLLLLLLLLLLLLLLLLLLLLLLLLLLLLLLLLLLLLLLLLLLLLLLLLLLLLLLLLLLLLLLLLLLLLLLLLLLL",
"LLLLLLLLLLLLLLLLLLLLLLLLLLLLLLLLLLLLLLLLLLLLLLLLLLLLLLLLLLLLLLLLLLLLLLLLLLLLLLLLLLLLLLLLLLLLLLLLLLLLLLLLLLLLLLLLLLLLLLLLLLLLLLLLLL",
"LLLLLLLLLLLLLLLLLLLLLLLLLLLLLLLLLLLLLLLLLLLLLLLLLLLLLLLLLLLLLLLLLLLLLLLLLLLLLLLLLLLLLLLLLLLLLLLLLLLLLLLLLLLLLLLLLLLLLLLLLLLLLLLLLL",
"LLLLLLLLLLLLLLLLLLLLLLLLLLLLLLLLLLLLLLLLLLLLLLLLLLLLLLLLLLLLLLLLLLLLLLLLLLLLLLLLLLLLLLLLLLLLLLLLLLLLLLLLLLLLLLLLLLLLLLLLLLLLLLLLLL",
"LLLLLLLLLLLLLLLLLLLLLLLLLLLLLLLLLLLLLLLLLLLLLLLLLLLLLLLLLLLLLLLLLLLLLLLLLLLLLLLLLLLLLLLLLLLLLLLLLLLLLLLLLLLLLLLLLLLLLLLLLLLLLLLLLL",
"LLLLLLLLLLLLLLLLLLLLLLLLLLLLLLLLLLLLLLLLLLLLLLLLLLLLLLLLLLLLLLLLLLLLLLLLLLLLLLLLLLLLLLLLLLLLLLLLLLLLLLLLLLLLLLLLLLLLLLLLLLLLLLLLLL",
"LLLLLLLLLLLLLLLLLLLLLLLLLLLLLLLLLLLLLLLLLLLLLLLLLLLLLLLLLLLLLLLLLLLLLLLLLLLLLLLLLLLLLLLLLLLLLLLLLLLLLLLLLLLLLLLLLLLLLLLLLLLLLLLLLL",
"LLLLLLLLLLLLLLLLLLLLLLLLLLLLLLLLLLLLLLLLLLLLLLLLLLLLLLLLLLLLLLLLLLLLLLLLLLLLLLLLLLLLLLLLLLLLLLLLLLLLLLLLLLLLLLLLLLLLLLLLLLLLLLLLLL",
"LLLLLLLLLLLLLLLLLLLLLLLLLLLLLLLLLLLLLLLLLLLLLLLLLLLLLLLLLLLLLLLLLLLLLLLLLLLLLLLLLLLLLLLLLLLLLLLLLLLLLLLLLLLLLLLLLLLLLLLLLLLLLLLLLL",
"LLLLLLLLLLLLLLLLLLLLLLLLLLLLLLLLLLLLLLLLLLLLLLLLLLLLLLLLLLLLLLLLLLLLLLLLLLLLLLLLLLLLLLLLLLLLLLLLLLLLLLLLLLLLLLLLLLLLLLLLLLLLLLLLLL",
"LLLLLLLLLLLLLLLLLLLLLLLLLLLLLLLLLLLLLLLLLLLLLLLLLLLLLLLLLLLLLLLLLLLLLLLLLLLLLLLLLLLLLLLLLLLLLLLLLLLLLLLLLLLLLLLLLLLLLLLLLLLLLLLLLL",
"LLLLLLLLLLLLLLLLLLLLLLLLLLLLLLLLLLLLLLLLLLLLLLLLLLLLLLLLLLLLLLLLLLLLLLLLLLLLLLLLLLLLLLLLLLLLLLLLLLLLLLLLLLLLLLLLLLLLLLLLLLLLLLLLLL",
"LLLLLLLLLLLLLLLLLLLLLLLLLLLLLLLLLLLLLLLLLLLLLLLLLLLLLLLLLLLLLLLLLLLLLLLLLLLLLLLLLLLLLLLLLLLLLLLLLLLLLLLLLLLLLLLLLLLLLLLLLLLLLLLLLL",
"LLLLLLLLLLLLLLLLLLLLLLLLLLLLLLLLLLLLLLLLLLLLLLLLLLLLLLLLLLLLLLLLLLLLLLLLLLLLLLLLLLLLLLLLLLLLLLLLLLLLLLLLLLLLLLLLLLLLLLLLLLLLLLLLLL",
"LLLLLLLLLLLLLLLLLLLLLLLLLLLLLLLLLLLLLLLLLLLLLLLLLLLLLLLLLLLLLLLLLLLLLLLLLLLLLLLLLLLLLLLLLLLLLLLLLLLLLLLLLLLLLLLLLLLLLLLLLLLLLLLLLL",
"LLLLLLLLLLLLLLLLLLLLLLLLLLLLLLLLLLLLLLLLLLLLLLLLLLLLLLLLLLLLLLLLLLLLLLLLLLLLLLLLLLLLLLLLLLLLLLLLLLLLLLLLLLLLLLLLLLLLLLLLLLLLLLLLLL",
"LLLLLLLLLLLLLLLLLLLLLLLLLLLLLLLLLLLLLLLLLLLLLLLLLLLLLLLLLLLLLLLLLLLLLLLLLLLLLLLLLLLLLLLLLLLLLLLLLLLLLLLLLLLLLLLLLLLLLLLLLLLLLLLLLL",
"LLLLLLLLLLLLLLLLLLLLLLLLLLLLLLLLLLLLLLLLLLLLLLLLLLLLLLLLLLLLLLLLLLLLLLLLLLLLLLLLLLLLLLLLLLLLLLLLLLLLLLLLLLLLLLLLLLLLLLLLLLLLLLLLLL",
"LLLLLLLLLLLLLLLLLLLLLLLLLLLLLLLLLLLLLLLLLLLLLLLLLLLLLLLLLLLLLLLLLLLLLLLLLLLLLLLLLLLLLLLLLLLLLLLLLLLLLLLLLLLLLLLLLLLLLLLLLLLLLLLLLL"
};
